<?xml version="1.0" encoding="UTF-8"?>
<svg version="1.1" xmlns="http://www.w3.org/2000/svg" width="225" height="225">
<path d="M0 0 C74.25 0 148.5 0 225 0 C225 74.25 225 148.5 225 225 C150.75 225 76.5 225 0 225 C0 150.75 0 76.5 0 0 Z " fill="#FDF6EE" transform="translate(0,0)"/>
<path d="M0 0 C0 0.33 0 0.66 0 1 C-0.71285156 1.17015625 -1.42570312 1.3403125 -2.16015625 1.515625 C-12.86713033 4.07419938 -12.86713033 4.07419938 -21 11 C-20.9362463 13.49362892 -20.9362463 13.49362892 -20 16 C-18.07347245 17.62180872 -18.07347245 17.62180872 -15.5625 18.6875 C-14.75941406 19.08324219 -13.95632812 19.47898437 -13.12890625 19.88671875 C-4.93219 22.80315337 3.16730084 23.35942477 11.8125 23.3125 C12.86695313 23.30831055 13.92140625 23.30412109 15.0078125 23.29980469 C25.63511199 23.14583333 35.90618697 21.94595467 45 16 C46.39120072 12.6447512 46.15177115 11.45531344 45 8 C43.21347942 6.86364443 43.21347942 6.86364443 41 6 C40.20722656 5.65839844 39.41445312 5.31679687 38.59765625 4.96484375 C37.76105469 4.62582031 36.92445313 4.28679687 36.0625 3.9375 C35.22847656 3.59589844 34.39445312 3.25429687 33.53515625 2.90234375 C31.03197122 2.01137959 28.61447917 1.45367528 26 1 C26 0.67 26 0.34 26 0 C40.67230168 0.30567295 55.46199981 4.4784284 66.625 14.3125 C68.66054626 18.29106769 68.96011942 21.63445701 68 26 C63.38157505 35.05644267 52.3932961 38.0401974 43.4453125 41.10546875 C33.69930473 43.6358948 24.23146389 44.33051687 14.1875 44.25 C12.95427002 44.24250732 11.72104004 44.23501465 10.45043945 44.22729492 C-8.44424149 44.00415394 -26.99377133 41.83488929 -41.5625 28.6875 C-43.60620122 24.86666728 -44.1145821 21.21602795 -43 17 C-39.56635118 11.985577 -35.99140966 9.41144612 -30.5625 6.8125 C-29.86382812 6.47154297 -29.16515625 6.13058594 -28.4453125 5.77929688 C-19.4304234 1.56528452 -9.98729342 -0.59923761 0 0 Z " fill="#FE6003" transform="translate(100,63)"/>
<path d="M0 0 C7.90362328 1.77783213 17.1063208 4.18380397 22 11 C23.125 13 23.125 13 23 15 C17.14520104 22.50146116 8.91340465 23.77093341 0 25 C-3.96338141 25.28140206 -7.90258175 25.33456189 -11.875 25.3125 C-12.92494141 25.30758545 -13.97488281 25.3026709 -15.05664062 25.29760742 C-25.42514346 25.14111686 -34.61042033 24.03474038 -43.609375 18.4765625 C-45.49392551 16.47555101 -45.65967739 14.67780155 -46 12 C-39.72906727 5.76324129 -34.03492329 2 -25 2 C-25 2.66 -25 3.32 -25 4 C-20.545 3.505 -20.545 3.505 -16 3 C-17 5 -17 5 -18.84765625 5.6328125 C-19.57855469 5.79523438 -20.30945313 5.95765625 -21.0625 6.125 C-21.79597656 6.29257813 -22.52945313 6.46015625 -23.28515625 6.6328125 C-23.85105469 6.75398438 -24.41695312 6.87515625 -25 7 C-25 7.66 -25 8.32 -25 9 C-20.45765731 11.27117134 -16.45835291 11.3013819 -11.5 11.25 C-10.38044922 11.26160156 -10.38044922 11.26160156 -9.23828125 11.2734375 C-5.0421752 11.25858403 -1.83148212 10.91574106 2 9 C2 8.34 2 7.68 2 7 C-0.97 6.01 -3.94 5.02 -7 4 C-7 3.67 -7 3.34 -7 3 C-3.535 2.505 -3.535 2.505 0 2 C0 1.34 0 0.68 0 0 Z " fill="#FCF0E4" transform="translate(124,62)"/>
<path d="M0 0 C-1 2 -1 2 -2.84765625 2.6328125 C-3.57855469 2.79523438 -4.30945313 2.95765625 -5.0625 3.125 C-6.16271484 3.37636719 -6.16271484 3.37636719 -7.28515625 3.6328125 C-7.85105469 3.75398438 -8.41695312 3.87515625 -9 4 C-9 4.66 -9 5.32 -9 6 C-4.45765731 8.27117134 -0.45835291 8.3013819 4.5 8.25 C5.61955078 8.26160156 5.61955078 8.26160156 6.76171875 8.2734375 C10.9578248 8.25858403 14.16851788 7.91574106 18 6 C18 5.34 18 4.68 18 4 C15.525 3.01 15.525 3.01 13 2 C16.22730196 0.92182065 17.98126331 1.05141931 21.125 2.3125 C22.14980469 2.70888672 22.14980469 2.70888672 23.1953125 3.11328125 C25 4 25 4 27 6 C27.125 8.625 27.125 8.625 27 11 C25.75264433 11.6509259 24.50198168 12.29551669 23.25 12.9375 C22.55390625 13.29714844 21.8578125 13.65679687 21.140625 14.02734375 C15.84626005 16.43299498 10.59171614 16.21806304 4.875 16.25 C3.97523437 16.270625 3.07546875 16.29125 2.1484375 16.3125 C-4.57351602 16.35113192 -12.35476343 15.99060236 -17.77001953 11.54785156 C-19 10 -19 10 -19.1875 7.5625 C-17.34496736 3.58650852 -13.97171534 2.50320952 -10 1 C-6.59593306 -0.00119616 -3.55034382 -0.08068963 0 0 Z " fill="#FD6007" transform="translate(108,65)"/>
<path d="M0 0 C3.01310203 0.67421887 4.82822569 2.29697569 6.97265625 4.44140625 C9.44065672 3.2896727 11.0204919 2.3935706 12.97265625 0.44140625 C14.29265625 0.44140625 15.61265625 0.44140625 16.97265625 0.44140625 C16.97265625 1.10140625 16.97265625 1.76140625 16.97265625 2.44140625 C15.01338562 4.15576805 13.01385413 5.82545793 10.97265625 7.44140625 C12.29265625 9.09140625 13.61265625 10.74140625 14.97265625 12.44140625 C17.41745704 12.25311853 17.41745704 12.25311853 19.97265625 11.44140625 C21.33285776 9.47382352 21.33285776 9.47382352 21.97265625 7.44140625 C22.96265625 7.44140625 23.95265625 7.44140625 24.97265625 7.44140625 C24.62713237 9.99828294 24.22178612 12.01642 22.91015625 14.25390625 C19.74756693 16.19226744 16.51365243 16.07491781 12.97265625 15.44140625 C10.66924013 14.32121862 8.99212951 13.05698486 6.97265625 11.44140625 C6.31265625 12.10140625 5.65265625 12.76140625 4.97265625 13.44140625 C0.87030065 16.17630998 -1.16152441 15.99077295 -6.02734375 15.44140625 C-7.96484375 14.37890625 -7.96484375 14.37890625 -9.02734375 12.44140625 C-10.15697076 8.37474901 -10.4635988 6.33288397 -8.58984375 2.50390625 C-5.67383603 0.15687564 -3.72857208 -0.2160481 0 0 Z " fill="#FA6818" transform="translate(128.02734375,146.55859375)"/>
<path d="M0 0 C0.99 0 1.98 0 3 0 C3 2.31 3 4.62 3 7 C3.9075 6.9175 4.815 6.835 5.75 6.75 C9 7 9 7 11.1875 8.625 C13.52863177 11.6926899 13.41570094 13.43887833 13.25 17.25 C13.21390625 18.32765625 13.1778125 19.4053125 13.140625 20.515625 C13.07101563 21.74539062 13.07101563 21.74539062 13 23 C12.01 23 11.02 23 10 23 C9.67 19.04 9.34 15.08 9 11 C7.35 11 5.7 11 4 11 C3.67 14.96 3.34 18.92 3 23 C2.01 23 1.02 23 0 23 C0 15.41 0 7.82 0 0 Z " fill="#FA6A1D" transform="translate(98,140)"/>
<path d="M0 0 C0.70125 0.01417969 1.4025 0.02835938 2.125 0.04296875 C3.176875 0.05263672 3.176875 0.05263672 4.25 0.0625 C6.125 0.23046875 6.125 0.23046875 8.125 1.23046875 C7.795 2.22046875 7.465 3.21046875 7.125 4.23046875 C4.815 3.90046875 2.505 3.57046875 0.125 3.23046875 C0.125 3.89046875 0.125 4.55046875 0.125 5.23046875 C1.259375 5.62234375 2.39375 6.01421875 3.5625 6.41796875 C7.125 8.23046875 7.125 8.23046875 8.1875 10.79296875 C8.125 13.23046875 8.125 13.23046875 6.125 15.23046875 C4.25 15.4609375 4.25 15.4609375 2.125 15.41796875 C1.42375 15.41152344 0.7225 15.40507812 0 15.3984375 C-1.875 15.23046875 -1.875 15.23046875 -3.875 14.23046875 C-3.875 13.24046875 -3.875 12.25046875 -3.875 11.23046875 C-1.235 11.56046875 1.405 11.89046875 4.125 12.23046875 C4.455 11.57046875 4.785 10.91046875 5.125 10.23046875 C2.155 9.24046875 -0.815 8.25046875 -3.875 7.23046875 C-4 4.85546875 -4 4.85546875 -3.875 2.23046875 C-1.875 0.23046875 -1.875 0.23046875 0 0 Z " fill="#FB5F0C" transform="translate(60.875,146.76953125)"/>
<path d="M0 0 C3.00296082 1.0986442 4.48085688 2.54746531 6.5625 4.9375 C5.19266497 8.09865776 4.5734362 8.9302092 1.5625 10.9375 C-1.75990324 10.6133631 -3.04526303 10.32973697 -5.4375 7.9375 C-5.80546448 5.06737704 -5.81259409 3.52975382 -4.25 1.0625 C-2.4375 -0.0625 -2.4375 -0.0625 0 0 Z " fill="#FBEEE1" transform="translate(126.4375,149.0625)"/>
<path d="M0 0 C0.66 1.32 1.32 2.64 2 4 C0.700625 3.814375 -0.59875 3.62875 -1.9375 3.4375 C-4.08575543 3.1018371 -4.08575543 3.1018371 -6 3 C-7.41577477 4.18424326 -7.41577477 4.18424326 -7.0625 7.5625 C-7.041875 8.696875 -7.02125 9.83125 -7 11 C-3.62182575 11.84454356 -1.32534757 12.10844919 2 11 C1.34 12.32 0.68 13.64 0 15 C-7.28358209 15.35820896 -7.28358209 15.35820896 -10 14 C-11.62824168 10.74351663 -11.49521025 7.51599278 -11 4 C-8.87613735 -1.30965662 -5.01877178 -0.32909979 0 0 Z " fill="#FB610D" transform="translate(88,147)"/>
<path d="M0 0 C0.66 0 1.32 0 2 0 C2.33 6.27 2.66 12.54 3 19 C4.32 19.33 5.64 19.66 7 20 C7 20.66 7 21.32 7 22 C4.125 22.125 4.125 22.125 1 22 C-1 20 -1 20 -1.24291992 18.04467773 C-1.23881104 17.26552002 -1.23470215 16.4863623 -1.23046875 15.68359375 C-1.22853516 14.83732422 -1.22660156 13.99105469 -1.22460938 13.11914062 C-1.21236328 12.23419922 -1.20011719 11.34925781 -1.1875 10.4375 C-1.18685547 9.54869141 -1.18621094 8.65988281 -1.18554688 7.74414062 C-1.14021097 1.14021097 -1.14021097 1.14021097 0 0 Z " fill="#FC6C22" transform="translate(161,140)"/>
<path d="M0 0 C1.4540625 0.0309375 1.4540625 0.0309375 2.9375 0.0625 C3.97755702 3.44268531 4.01754482 6.5405279 3.9375 10.0625 C3.2775 10.0625 2.6175 10.0625 1.9375 10.0625 C1.9375 8.7425 1.9375 7.4225 1.9375 6.0625 C0.6175 6.0625 -0.7025 6.0625 -2.0625 6.0625 C-2.0625 7.3825 -2.0625 8.7025 -2.0625 10.0625 C-2.7225 10.0625 -3.3825 10.0625 -4.0625 10.0625 C-4.08939216 8.58343108 -4.10884621 7.10422517 -4.125 5.625 C-4.13660156 4.80128906 -4.14820313 3.97757812 -4.16015625 3.12890625 C-4.00103255 -0.23815127 -3.43619093 0.07012635 0 0 Z " fill="#F9681F" transform="translate(165.0625,118.9375)"/>
<path d="M0 0 C0.66 0.33 1.32 0.66 2 1 C1.67447917 3.01822917 1.34895833 5.03645833 1.0234375 7.0546875 C1.01570313 7.69664062 1.00796875 8.33859375 1 9 C3.76223278 11.76223278 6.20706617 11.57856291 10 12 C9.67 12.66 9.34 13.32 9 14 C1.65840708 14.36106195 1.65840708 14.36106195 -0.9375 12.9375 C-2.58128695 9.94000615 -2.88081199 7.39685818 -3 4 C-1.5625 1.5625 -1.5625 1.5625 0 0 Z " fill="#FB600B" transform="translate(121,148)"/>
<path d="M0 0 C2.5 0.125 2.5 0.125 3.5 1.125 C3.57179964 2.64428038 3.58392007 4.16667482 3.5625 5.6875 C3.55347656 6.51378906 3.54445312 7.34007813 3.53515625 8.19140625 C3.51775391 9.14853516 3.51775391 9.14853516 3.5 10.125 C3.17 8.805 2.84 7.485 2.5 6.125 C1.18 6.125 -0.14 6.125 -1.5 6.125 C-1.5 7.445 -1.5 8.765 -1.5 10.125 C-2.16 10.125 -2.82 10.125 -3.5 10.125 C-3.52689216 8.64593108 -3.54634621 7.16672517 -3.5625 5.6875 C-3.57410156 4.86378906 -3.58570313 4.04007812 -3.59765625 3.19140625 C-3.4527802 0.12582896 -3.07795841 0.15389792 0 0 Z " fill="#F97D40" transform="translate(138.5,118.875)"/>
<path d="M0 0 C0.33 0 0.66 0 1 0 C1.06058594 0.71027344 1.12117188 1.42054688 1.18359375 2.15234375 C1.26738281 3.07144531 1.35117188 3.99054688 1.4375 4.9375 C1.51871094 5.85402344 1.59992188 6.77054688 1.68359375 7.71484375 C1.76044976 9.96159732 1.76044976 9.96159732 3 11 C3.07226502 12.85287502 3.0838122 14.70833878 3.0625 16.5625 C3.05347656 17.57441406 3.04445313 18.58632812 3.03515625 19.62890625 C3.02355469 20.41136719 3.01195313 21.19382813 3 22 C2.01 22 1.02 22 0 22 C0 14.74 0 7.48 0 0 Z " fill="#FB5F0E" transform="translate(98,141)"/>
<path d="M0 0 C0.99 0 1.98 0 3 0 C2.65447612 2.55687669 2.24912987 4.57501375 0.9375 6.8125 C-2.36716375 8.83793908 -5.18034955 8.36377623 -9 8 C-9.66 7.01 -10.32 6.02 -11 5 C-9.1128125 5.1546875 -9.1128125 5.1546875 -7.1875 5.3125 C-5.00066054 5.39645994 -5.00066054 5.39645994 -3 5 C-1.1375562 2.59141286 -1.1375562 2.59141286 0 0 Z " fill="#FB5B05" transform="translate(150,154)"/>
<path d="M0 0 C1.65 0 3.3 0 5 0 C5 0.66 5 1.32 5 2 C3.68 1.67 2.36 1.34 1 1 C1 1.99 1 2.98 1 4 C2.65 4.33 4.3 4.66 6 5 C5.67 6.65 5.34 8.3 5 10 C3.35 10 1.7 10 0 10 C0 9.01 0 8.02 0 7 C1.32 7.66 2.64 8.32 4 9 C3.33131686 5.88667752 3.33131686 5.88667752 0.9375 4.8125 C0.298125 4.544375 -0.34125 4.27625 -1 4 C-0.67 2.68 -0.34 1.36 0 0 Z " fill="#F96017" transform="translate(110,119)"/>
<path d="M0 0 C2.96175123 0.61277612 4.38058783 1.25372522 7 3 C6.01 4.485 6.01 4.485 5 6 C-3.57142857 5 -3.57142857 5 -7 4 C-7 3.67 -7 3.34 -7 3 C-3.535 2.505 -3.535 2.505 0 2 C0 1.34 0 0.68 0 0 Z " fill="#F8C8AA" transform="translate(124,62)"/>
<path d="M0 0 C5.75 0.875 5.75 0.875 8 2 C7.67 2.99 7.34 3.98 7 5 C4.03 4.505 4.03 4.505 1 4 C0.67 2.68 0.34 1.36 0 0 Z " fill="#FAEDDF" transform="translate(58,155)"/>
<path d="M0 0 C0.66 0.33 1.32 0.66 2 1 C2 3.97 2 6.94 2 10 C1.34 10 0.68 10 0 10 C0 8.02 0 6.04 0 4 C-1.32 4 -2.64 4 -4 4 C-3.67 3.01 -3.34 2.02 -3 1 C-2.01 0.67 -1.02 0.34 0 0 Z " fill="#FAA47A" transform="translate(167,119)"/>
<path d="M0 0 C0.66 0.33 1.32 0.66 2 1 C2 2.32 2 3.64 2 5 C0.02 5 -1.96 5 -4 5 C-3.6875 3.0625 -3.6875 3.0625 -3 1 C-2.01 0.67 -1.02 0.34 0 0 Z " fill="#F8AA7E" transform="translate(88,119)"/>
<path d="M0 0 C2.31 0 4.62 0 7 0 C7.66 1.32 8.32 2.64 9 4 C6.03 3.67 3.06 3.34 0 3 C0 2.01 0 1.02 0 0 Z " fill="#FD5A05" transform="translate(81,147)"/>
<path d="M0 0 C0 0.33 0 0.66 0 1 C-3.96 1.99 -7.92 2.98 -12 4 C-12.33 3.01 -12.66 2.02 -13 1 C-8.59085217 -0.10228696 -4.51617599 -0.07654536 0 0 Z " fill="#FA5D0E" transform="translate(100,63)"/>
<path d="M0 0 C-0.33 0.99 -0.66 1.98 -1 3 C-2.875 3.875 -2.875 3.875 -5 4 C-6.75 2.5625 -6.75 2.5625 -8 1 C-5.10765685 0.17361624 -3.11257569 0 0 0 Z " fill="#FAE4D0" transform="translate(99,64)"/>
<path d="M0 0 C2.875 -0.125 2.875 -0.125 6 0 C6.66 0.66 7.32 1.32 8 2 C7 3 7 3 3.4375 3.0625 C2.303125 3.041875 1.16875 3.02125 0 3 C0 2.01 0 1.02 0 0 Z " fill="#FC5900" transform="translate(123,159)"/>
</svg>
