<?xml version="1.0" encoding="UTF-8"?>
<svg version="1.1" xmlns="http://www.w3.org/2000/svg" width="200" height="200">
<path d="M0 0 C66 0 132 0 200 0 C200 66 200 132 200 200 C134 200 68 200 0 200 C0 134 0 68 0 0 Z " fill="#FDFDFE" transform="translate(0,0)"/>
<path d="M0 0 C0 0.66 0 1.32 0 2 C-0.57443848 2.04487549 -1.14887695 2.08975098 -1.74072266 2.13598633 C-4.37002994 2.34869374 -6.99733361 2.58043211 -9.625 2.8125 C-10.52863281 2.88275391 -11.43226562 2.95300781 -12.36328125 3.02539062 C-17.58393346 3.50172751 -21.37864673 4.33944173 -26 7 C-26.66 7 -27.32 7 -28 7 C-29.23543907 10.70631721 -29.55926729 14.14726975 -29 18 C-27.08780583 20.76205824 -25.91867189 21.77318281 -22.65942383 22.57788086 C-20.132125 22.97902836 -17.69171934 23.20101913 -15.13671875 23.31640625 C-14.25048828 23.35830078 -13.36425781 23.40019531 -12.45117188 23.44335938 C-11.0831543 23.50233398 -11.0831543 23.50233398 -9.6875 23.5625 C-8.75615234 23.60568359 -7.82480469 23.64886719 -6.86523438 23.69335938 C-4.57695546 23.79897225 -2.28857628 23.90107752 0 24 C0.10883596 26.37625177 0.18766696 28.74743976 0.25 31.125 C0.30027344 32.12273437 0.30027344 32.12273437 0.3515625 33.140625 C0.45227668 38.27704832 -0.69628017 41.1071553 -4 45 C-8.518374 47.79947934 -13.08766482 47.36785984 -18.25 47.375 C-19.16652344 47.39949219 -20.08304688 47.42398438 -21.02734375 47.44921875 C-28.25004634 47.48012903 -33.46837864 45.98619721 -39.0234375 41.2890625 C-43.67684864 35.55971814 -45.4655651 30.58516268 -45.2421875 23.1640625 C-44.50499088 16.57685398 -39.94538648 11.9918337 -35 8 C-24.43082003 1.10867176 -12.38845616 -0.60268165 0 0 Z " fill="#139BB5" transform="translate(100,46)"/>
<path d="M0 0 C4.3757918 3.8548642 7.21781641 7.38538777 8.0390625 13.2890625 C8.26934889 21.7259185 6.29037577 27.02925607 0.625 33.3125 C-1.71796743 34.76580291 -3.91092273 36.00185613 -6.375 37.1875 C-6.99117187 37.5071875 -7.60734375 37.826875 -8.2421875 38.15625 C-10.92714287 39.48144256 -12.79432381 40.38508452 -15.8125 40.0078125 C-16.328125 39.77835938 -16.84375 39.54890625 -17.375 39.3125 C-16.52615234 38.91417969 -16.52615234 38.91417969 -15.66015625 38.5078125 C-14.55994141 37.97800781 -14.55994141 37.97800781 -13.4375 37.4375 C-12.70660156 37.08945313 -11.97570312 36.74140625 -11.22265625 36.3828125 C-9.21167541 35.4440023 -9.21167541 35.4440023 -8.375 33.3125 C-8.30466231 31.43870395 -8.2906978 29.56248898 -8.3125 27.6875 C-8.32152344 26.68460938 -8.33054688 25.68171875 -8.33984375 24.6484375 C-8.35144531 23.87757812 -8.36304688 23.10671875 -8.375 22.3125 C-14.51648941 20.19355695 -20.34805973 19.88938232 -26.8125 19.6875 C-27.83021484 19.64882812 -28.84792969 19.61015625 -29.89648438 19.5703125 C-32.38914936 19.47669128 -34.8818195 19.39096007 -37.375 19.3125 C-37.48383596 16.93624823 -37.56266696 14.56506024 -37.625 12.1875 C-37.65851563 11.52234375 -37.69203125 10.8571875 -37.7265625 10.171875 C-37.82739387 5.02947514 -36.59124231 2.26371541 -33.375 -1.6875 C-24.32086423 -8.65221982 -9.34454217 -4.67227108 0 0 Z " fill="#1796B7" transform="translate(137.375,50.6875)"/>
<path d="M0 0 C1.42505859 -0.02900391 1.42505859 -0.02900391 2.87890625 -0.05859375 C7.09839119 -0.02892086 9.66475706 0.01687364 13.12890625 2.5390625 C15.08941706 6.9516082 15.04476349 10.85004459 14.9375 15.625 C14.94458984 16.51445312 14.95167969 17.40390625 14.95898438 18.3203125 C14.91168679 23.19560209 14.72972067 26.70827273 11.5 30.625 C8.85541621 31.94729189 6.82238699 31.72177194 3.875 31.6875 C2.87210938 31.67847656 1.86921875 31.66945312 0.8359375 31.66015625 C0.06507813 31.64855469 -0.70578125 31.63695312 -1.5 31.625 C-1.17 32.615 -0.84 33.605 -0.5 34.625 C2.14 34.955 4.78 35.285 7.5 35.625 C7.625 38 7.625 38 7.5 40.625 C5.5 42.625 5.5 42.625 2.125 42.9375 C-1.5 42.625 -1.5 42.625 -3.9375 41.5625 C-6.26643994 38.67461448 -5.77050795 36.20923038 -5.5 32.625 C-6.428125 32.398125 -7.35625 32.17125 -8.3125 31.9375 C-12.24357282 30.31882296 -12.81338201 29.48933945 -14.5 25.625 C-14.95455079 22.28384791 -14.96434451 18.99276608 -14.9375 15.625 C-14.95748047 14.73554688 -14.97746094 13.84609375 -14.99804688 12.9296875 C-14.99510346 8.98551452 -14.74279824 6.17146897 -13.12890625 2.5390625 C-8.98884532 -0.47524635 -4.98963938 -0.10155304 0 0 Z " fill="#12316A" transform="translate(180.5,116.375)"/>
<path d="M0 0 C3.52067351 -0.08782542 7.04106144 -0.14066643 10.5625 -0.1875 C11.55314453 -0.21263672 12.54378906 -0.23777344 13.56445312 -0.26367188 C19.50201923 -0.32285027 23.79189947 0.04945745 29 3 C30.74034499 6.48068998 30.58371457 10.20257598 30 14 C27.60355847 17.28654838 26.09463435 18.6837723 22.1875 19.8125 C21.465625 19.874375 20.74375 19.93625 20 20 C20 20.66 20 21.32 20 22 C13.23514355 23.6120509 6.95041086 24.26618595 0 24 C0 23.34 0 22.68 0 22 C-1.32 21.67 -2.64 21.34 -4 21 C-3.51917969 20.17242187 -3.03835937 19.34484375 -2.54296875 18.4921875 C-0.83887381 14.63532453 -0.45306513 11.26966313 -0.3125 7.125 C-0.27833984 6.43664062 -0.24417969 5.74828125 -0.20898438 5.0390625 C-0.12735909 3.35991387 -0.0619843 1.67998832 0 0 Z " fill="#EDF6F8" transform="translate(100,70)"/>
<path d="M0 0 C0.37769531 0.48984375 0.75539062 0.9796875 1.14453125 1.484375 C0.66886719 2.23460937 0.66886719 2.23460937 0.18359375 3 C-1.22034525 6.35678648 -1.31772529 9.64723794 -1.48046875 13.234375 C-1.51914063 13.93175781 -1.5578125 14.62914063 -1.59765625 15.34765625 C-1.69145499 17.05948318 -1.77453049 18.77189182 -1.85546875 20.484375 C-5.0428899 20.54302535 -8.23016993 20.57818759 -11.41796875 20.609375 C-12.76084961 20.63451172 -12.76084961 20.63451172 -14.13085938 20.66015625 C-26.15622818 20.74825419 -26.15622818 20.74825419 -30.79296875 16.859375 C-32.34775994 13.3839594 -32.63976304 10.17129114 -31.85546875 6.484375 C-28.04577557 1.47734968 -24.33877259 -0.07995766 -18.29296875 -1.140625 C-3.28926289 -2.68680843 -3.28926289 -2.68680843 0 0 Z " fill="#F7FDFA" transform="translate(101.85546875,49.515625)"/>
<path d="M0 0 C0.93585937 0.01804687 1.87171875 0.03609375 2.8359375 0.0546875 C5.14167015 0.10174327 7.44530945 0.16746287 9.75 0.25 C8.875 5.125 8.875 5.125 7.75 6.25 C5.39686445 6.32271741 3.04166332 6.33370868 0.6875 6.3125 C-0.60285156 6.30347656 -1.89320312 6.29445313 -3.22265625 6.28515625 C-4.22167969 6.27355469 -5.22070312 6.26195313 -6.25 6.25 C-6.25 8.23 -6.25 10.21 -6.25 12.25 C-5.44175781 12.21519531 -4.63351562 12.18039063 -3.80078125 12.14453125 C-2.73214844 12.11746094 -1.66351563 12.09039062 -0.5625 12.0625 C0.49324219 12.02769531 1.54898437 11.99289063 2.63671875 11.95703125 C6.41283227 12.31237443 9.05050942 13.55050942 11.75 16.25 C11.98828125 18.61328125 11.98828125 18.61328125 12.0625 21.5625 C12.09988281 22.52800781 12.13726562 23.49351562 12.17578125 24.48828125 C11.75 27.25 11.75 27.25 10.43359375 29.58984375 C6.05500007 32.29858074 1.52898819 31.66593108 -3.5 31.5 C-4.53125 31.48195312 -5.5625 31.46390625 -6.625 31.4453125 C-9.16761064 31.39822712 -11.70833162 31.3324805 -14.25 31.25 C-14.292721 29.58388095 -14.29063832 27.91617115 -14.25 26.25 C-13.25 25.25 -13.25 25.25 -9.43359375 25.15234375 C-7.85153318 25.15901911 -6.26948841 25.17098125 -4.6875 25.1875 C-3.88119141 25.19201172 -3.07488281 25.19652344 -2.24414062 25.20117188 C-0.24606244 25.21299482 1.75197783 25.23093086 3.75 25.25 C3.75 23.27 3.75 21.29 3.75 19.25 C2.78578125 19.29640625 1.8215625 19.3428125 0.828125 19.390625 C-0.43515625 19.42671875 -1.6984375 19.4628125 -3 19.5 C-4.87945313 19.56960937 -4.87945313 19.56960937 -6.796875 19.640625 C-10.25 19.25 -10.25 19.25 -12.671875 17.578125 C-14.58560882 14.75489392 -14.78725389 13.14010432 -14.75 9.75 C-14.7603125 8.8115625 -14.770625 7.873125 -14.78125 6.90625 C-14.25 4.25 -14.25 4.25 -12.859375 1.921875 C-8.76080659 -0.70415386 -4.75217808 -0.1730485 0 0 Z " fill="#14326A" transform="translate(20.25,116.75)"/>
<path d="M0 0 C0.93585938 0.01804687 1.87171875 0.03609375 2.8359375 0.0546875 C5.14167015 0.10174327 7.44530945 0.16746287 9.75 0.25 C8.875 5.125 8.875 5.125 7.75 6.25 C5.56707226 6.48481693 3.37796826 6.66363323 1.1875 6.8125 C-0.01003906 6.89628906 -1.20757812 6.98007813 -2.44140625 7.06640625 C-3.36824219 7.12699219 -4.29507813 7.18757813 -5.25 7.25 C-5.25 8.57 -5.25 9.89 -5.25 11.25 C-4.28578125 11.27578125 -3.3215625 11.3015625 -2.328125 11.328125 C-0.43320313 11.41320312 -0.43320313 11.41320312 1.5 11.5 C3.37945312 11.56960937 3.37945312 11.56960937 5.296875 11.640625 C9.21342536 12.33178095 10.47707332 13.02955053 12.75 16.25 C13.71313601 20.4893152 13.16404033 24.3036221 11.4375 28.25 C9.75 30.25 9.75 30.25 6.75 31.25 C5.12280518 31.33143855 3.49248281 31.3575302 1.86328125 31.34765625 C0.92548828 31.34443359 -0.01230469 31.34121094 -0.97851562 31.33789062 C-1.95498047 31.32951172 -2.93144531 31.32113281 -3.9375 31.3125 C-4.92556641 31.30798828 -5.91363281 31.30347656 -6.93164062 31.29882812 C-9.37115474 31.28704303 -11.81054689 31.27059011 -14.25 31.25 C-14.292721 29.58388095 -14.29063832 27.91617115 -14.25 26.25 C-12.13074396 24.13074396 -7.6303907 24.83168983 -4.6875 24.6875 C-3.88119141 24.64431641 -3.07488281 24.60113281 -2.24414062 24.55664062 C-0.24631195 24.45024738 1.7518207 24.34959112 3.75 24.25 C3.75 22.6 3.75 20.95 3.75 19.25 C2.30367187 19.21132812 2.30367187 19.21132812 0.828125 19.171875 C-0.43515625 19.11515625 -1.6984375 19.0584375 -3 19 C-4.25296875 18.95359375 -5.5059375 18.9071875 -6.796875 18.859375 C-10.25 18.25 -10.25 18.25 -12.671875 16.515625 C-14.51997321 13.8624147 -14.78912759 12.45846277 -14.75 9.25 C-14.7603125 8.404375 -14.770625 7.55875 -14.78125 6.6875 C-13.064234 -1.19057342 -6.59633033 -0.24020251 0 0 Z " fill="#0E316F" transform="translate(151.25,116.75)"/>
<path d="M0 0 C3.56234428 -0.08741124 7.12441108 -0.14052896 10.6875 -0.1875 C11.69490234 -0.21263672 12.70230469 -0.23777344 13.74023438 -0.26367188 C23.28177685 -0.35814259 23.28177685 -0.35814259 27 3 C28.76496414 8.29489243 28.89559717 13.91027326 26.6875 19.0625 C25 21 25 21 22 22 C20.10529184 22.0685495 18.2083166 22.08480372 16.3125 22.0625 C15.31863281 22.05347656 14.32476562 22.04445312 13.30078125 22.03515625 C12.16189453 22.01775391 12.16189453 22.01775391 11 22 C11 20.02 11 18.04 11 16 C13.64 15.67 16.28 15.34 19 15 C19 12.36 19 9.72 19 7 C15.37 6.67 11.74 6.34 8 6 C8 14.25 8 22.5 8 31 C5.69 30.67 3.38 30.34 1 30 C-0.40912096 27.18175808 -0.11183553 24.82748718 -0.09765625 21.6796875 C-0.09443359 20.42285156 -0.09121094 19.16601562 -0.08789062 17.87109375 C-0.07951172 16.55238281 -0.07113281 15.23367187 -0.0625 13.875 C-0.05748489 12.53515789 -0.05292201 11.195314 -0.04882812 9.85546875 C-0.03701086 6.57026794 -0.02053617 3.28515603 0 0 Z " fill="#163266" transform="translate(80,117)"/>
<path d="M0 0 C7.92 0 15.84 0 24 0 C24 1.65 24 3.3 24 5 C23 6 23 6 19.62109375 6.09765625 C18.22652923 6.09098369 16.83198257 6.07902532 15.4375 6.0625 C14.72658203 6.05798828 14.01566406 6.05347656 13.28320312 6.04882812 C11.52209987 6.03700864 9.76103964 6.01907263 8 6 C8 7.98 8 9.96 8 12 C12.29 12 16.58 12 21 12 C21 13.98 21 15.96 21 18 C16.71 18 12.42 18 8 18 C8 20.31 8 22.62 8 25 C13.28 25 18.56 25 24 25 C23 30 23 30 22 31 C20.36527118 31.08700342 18.72685945 31.10701063 17.08984375 31.09765625 C16.199021 31.09515869 15.30819824 31.09266113 14.39038086 31.09008789 C13.25093018 31.08098389 12.11147949 31.07187988 10.9375 31.0625 C7.328125 31.041875 3.71875 31.02125 0 31 C0 20.77 0 10.54 0 0 Z " fill="#10316D" transform="translate(110,117)"/>
<path d="M0 0 C2.05078125 0.03255208 4.1015625 0.06510417 6.15234375 0.09765625 C9.73726614 6.52408394 12.42690164 13.20747677 14.96484375 20.09765625 C15.27881104 20.94690674 15.59277832 21.79615723 15.91625977 22.67114258 C18.15234375 28.83261713 18.15234375 28.83261713 18.15234375 31.09765625 C15.18234375 31.09765625 12.21234375 31.09765625 9.15234375 31.09765625 C8.14683742 28.16193688 7.14775121 25.22429855 6.15234375 22.28515625 C5.72308594 21.03508789 5.72308594 21.03508789 5.28515625 19.75976562 C5.01445313 18.95732422 4.74375 18.15488281 4.46484375 17.328125 C4.21347656 16.58973389 3.96210937 15.85134277 3.703125 15.09057617 C3.15234375 13.09765625 3.15234375 13.09765625 3.15234375 10.09765625 C2.49234375 10.09765625 1.83234375 10.09765625 1.15234375 10.09765625 C0.90484375 11.33515625 0.65734375 12.57265625 0.40234375 13.84765625 C-0.89583977 19.74592483 -2.86205593 25.40110388 -4.84765625 31.09765625 C-7.81765625 31.09765625 -10.78765625 31.09765625 -13.84765625 31.09765625 C-11.86772375 24.0638846 -9.47374786 17.30203542 -6.72265625 10.53515625 C-6.36300781 9.63474609 -6.00335938 8.73433594 -5.6328125 7.80664062 C-2.54070921 0.13428696 -2.54070921 0.13428696 0 0 Z " fill="#0A2D6C" transform="translate(60.84765625,116.90234375)"/>
<path d="M0 0 C6.71728133 6.36374021 6.71728133 6.36374021 7.30078125 11.8046875 C7.33362963 20.41096258 5.84211929 25.52073683 0 32 C-2.34296743 33.45330291 -4.53592273 34.68935613 -7 35.875 C-7.61617187 36.1946875 -8.23234375 36.514375 -8.8671875 36.84375 C-11.55214287 38.16894256 -13.41932381 39.07258452 -16.4375 38.6953125 C-16.953125 38.46585938 -17.46875 38.23640625 -18 38 C-17.15115234 37.60167969 -17.15115234 37.60167969 -16.28515625 37.1953125 C-15.18494141 36.66550781 -15.18494141 36.66550781 -14.0625 36.125 C-13.33160156 35.77695313 -12.60070312 35.42890625 -11.84765625 35.0703125 C-9.83667541 34.1315023 -9.83667541 34.1315023 -9 32 C-8.92966231 30.12620395 -8.9156978 28.24998898 -8.9375 26.375 C-8.94652344 25.37210938 -8.95554688 24.36921875 -8.96484375 23.3359375 C-8.97644531 22.56507812 -8.98804688 21.79421875 -9 21 C-15.14148941 18.88105695 -20.97305973 18.57688232 -27.4375 18.375 C-28.45521484 18.33632812 -29.47292969 18.29765625 -30.52148438 18.2578125 C-33.01404632 18.16419515 -35.50699739 18.08103858 -38 18 C-38 13.05 -38 8.1 -38 3 C-37.67 3 -37.34 3 -37 3 C-37 7.62 -37 12.24 -37 17 C-35.25332031 16.96519531 -33.50664063 16.93039063 -31.70703125 16.89453125 C-29.40886379 16.86639042 -27.11068592 16.83909058 -24.8125 16.8125 C-23.08676758 16.77479492 -23.08676758 16.77479492 -21.32617188 16.73632812 C-19.65844727 16.72182617 -19.65844727 16.72182617 -17.95703125 16.70703125 C-16.93585205 16.6913208 -15.91467285 16.67561035 -14.86254883 16.65942383 C-11.56358045 17.05192369 -9.76828868 18.22833027 -7 20 C-6.01 20 -5.02 20 -4 20 C-1.8125 22 -1.8125 22 0 24 C0 23.01 0 22.02 0 21 C1.32 20.34 2.64 19.68 4 19 C4 17.02 4 15.04 4 13 C3.34 13.33 2.68 13.66 2 14 C2 13.34 2 12.68 2 12 C1.01 12 0.02 12 -1 12 C-0.79375 11.071875 -0.5875 10.14375 -0.375 9.1875 C0.36692966 5.84826598 0.36692966 5.84826598 -2 3 C-1.34 3 -0.68 3 0 3 C0 2.01 0 1.02 0 0 Z " fill="#3388B7" transform="translate(138,52)"/>
<path d="M0 0 C0 0.66 0 1.32 0 2 C-0.57443848 2.04487549 -1.14887695 2.08975098 -1.74072266 2.13598633 C-4.37002994 2.34869374 -6.99733361 2.58043211 -9.625 2.8125 C-10.52863281 2.88275391 -11.43226562 2.95300781 -12.36328125 3.02539062 C-17.58393346 3.50172751 -21.37864673 4.33944173 -26 7 C-26.66 7 -27.32 7 -28 7 C-29.23752115 10.71256344 -28.89210346 13.75596453 -28.64453125 17.625 C-29 20 -29 20 -30.82421875 21.8125 C-33 23 -33 23 -36 23 C-36 23.99 -36 24.98 -36 26 C-36.7425 26.28875 -37.485 26.5775 -38.25 26.875 C-40.56900199 27.82368263 -42.76932676 28.86559779 -45 30 C-45.40621661 23.22972319 -45.00428845 18.73032483 -40.59375 13.25390625 C-30.18490599 1.83854666 -14.81003203 -0.72048804 0 0 Z " fill="#9FE235" transform="translate(100,46)"/>
<path d="M0 0 C1.50046875 0.00386719 1.50046875 0.00386719 3.03125 0.0078125 C4.0315625 0.00523438 5.031875 0.00265625 6.0625 0 C8.53125 0.1328125 8.53125 0.1328125 9.53125 1.1328125 C9.63111975 3.97616298 9.67002881 6.78978413 9.65625 9.6328125 C9.66011719 10.43074219 9.66398438 11.22867188 9.66796875 12.05078125 C9.65785767 18.00620483 9.65785767 18.00620483 8.53125 19.1328125 C6.70009117 19.23132421 4.86505067 19.26253879 3.03125 19.2578125 C2.0309375 19.26039063 1.030625 19.26296875 0 19.265625 C-2.46875 19.1328125 -2.46875 19.1328125 -3.46875 18.1328125 C-3.56861975 15.28946202 -3.60752881 12.47584087 -3.59375 9.6328125 C-3.59761719 8.83488281 -3.60148438 8.03695312 -3.60546875 7.21484375 C-3.59354766 0.19332377 -3.59354766 0.19332377 0 0 Z " fill="#F4F8FD" transform="translate(177.46875,122.8671875)"/>
<path d="M0 0 C3.19274582 1.40856433 6.12734152 3.15043437 9.125 4.9375 C5.57660517 7.65145495 1.88744976 10.09423961 -1.8515625 12.53515625 C-5.03140624 14.73894757 -6.12633856 16.19419282 -6.875 19.9375 C-9.1875 19.75 -9.1875 19.75 -11.875 18.9375 C-14.86679956 15.32670743 -15.19620156 12.54138896 -14.875 7.9375 C-11.78690305 6.17287317 -10.64187864 5.9375 -6.875 5.9375 C-6.875 4.9475 -6.875 3.9575 -6.875 2.9375 C-4.58839834 1.15903204 -2.9665504 -0.09888501 0 0 Z " fill="#0AB1A6" transform="translate(70.875,66.0625)"/>
<path d="M0 0 C2.31 0 4.62 0 7 0 C7 9.9 7 19.8 7 30 C4.69 30 2.38 30 0 30 C0 20.1 0 10.2 0 0 Z " fill="#042868" transform="translate(37,117)"/>
<path d="M0 0 C2.79173055 -0.02690104 5.58320348 -0.04679053 8.375 -0.0625 C9.56609375 -0.07506836 9.56609375 -0.07506836 10.78125 -0.08789062 C16.7734375 -0.11328125 16.7734375 -0.11328125 19 1 C19.72159424 2.64363134 20.39351421 4.31050386 21 6 C19.33333333 6 17.66666667 6 16 6 C16 5.34 16 4.68 16 4 C9.07 3.505 9.07 3.505 2 3 C2 9.6 2 16.2 2 23 C1.34 23 0.68 23 0 23 C0 22.34 0 21.68 0 21 C-0.66 21.66 -1.32 22.32 -2 23 C-2.99 23 -3.98 23 -5 23 C-5.05791844 19.87507749 -5.09356746 16.75029234 -5.125 13.625 C-5.14175781 12.73554688 -5.15851563 11.84609375 -5.17578125 10.9296875 C-5.18222656 10.07890625 -5.18867188 9.228125 -5.1953125 8.3515625 C-5.20578613 7.56604004 -5.21625977 6.78051758 -5.22705078 5.97119141 C-5 4 -5 4 -3 2 C-2.01 2 -1.02 2 0 2 C0 1.34 0 0.68 0 0 Z " fill="#02276C" transform="translate(172,118)"/>
<path d="M0 0 C0 1.98 0 3.96 0 6 C0.33 4.02 0.66 2.04 1 0 C1.33 0 1.66 0 2 0 C2.57433809 9.76374745 2.57433809 9.76374745 -1 14 C-3.94131891 14.98043964 -5.82501665 15.11621202 -8.88671875 15.09765625 C-9.82451172 15.09443359 -10.76230469 15.09121094 -11.72851562 15.08789062 C-12.70498047 15.07951172 -13.68144531 15.07113281 -14.6875 15.0625 C-16.16959961 15.05573242 -16.16959961 15.05573242 -17.68164062 15.04882812 C-20.12115474 15.03704303 -22.56054689 15.02059011 -25 15 C-25.042721 13.33388095 -25.04063832 11.66617115 -25 10 C-22.88074396 7.88074396 -18.3803907 8.58168983 -15.4375 8.4375 C-14.63119141 8.39431641 -13.82488281 8.35113281 -12.99414062 8.30664062 C-10.99631195 8.20024738 -8.9981793 8.09959112 -7 8 C-6.67 5.69 -6.34 3.38 -6 1 C-3.92446352 0.4465236 -2.15634036 0 0 0 Z " fill="#123370" transform="translate(162,133)"/>
<path d="M0 0 C0.33 0 0.66 0 1 0 C1.33 2.97 1.66 5.94 2 9 C3.32 9 4.64 9 6 9 C6.66 8.34 7.32 7.68 8 7 C8 14.92 8 22.84 8 31 C5.69 30.67 3.38 30.34 1 30 C-0.40912096 27.18175808 -0.11183553 24.82748718 -0.09765625 21.6796875 C-0.09443359 20.42285156 -0.09121094 19.16601562 -0.08789062 17.87109375 C-0.07951172 16.55238281 -0.07113281 15.23367187 -0.0625 13.875 C-0.05748489 12.53515789 -0.05292201 11.195314 -0.04882812 9.85546875 C-0.03701086 6.57026794 -0.02053617 3.28515603 0 0 Z " fill="#103370" transform="translate(80,117)"/>
<path d="M0 0 C0.33 0.66 0.66 1.32 1 2 C1.99 1.34 2.98 0.68 4 0 C4.99 0.33 5.98 0.66 7 1 C6.51660156 1.391875 6.03320312 1.78375 5.53515625 2.1875 C3.55835703 4.52143089 3.57695969 5.97687387 3.4375 9 C3.25634196 12.68903651 3.12539942 13.81190086 1 17 C-1.125 17.6875 -1.125 17.6875 -3 18 C-3 16.02 -3 14.04 -3 12 C-7.29 12 -11.58 12 -16 12 C-16 10.02 -16 8.04 -16 6 C-11.05 5.67 -6.1 5.34 -1 5 C-0.67 3.35 -0.34 1.7 0 0 Z " fill="#F0F7FB" transform="translate(134,117)"/>
<path d="M0 0 C3.45838472 -0.02687864 6.91656225 -0.04677983 10.375 -0.0625 C11.35984375 -0.07087891 12.3446875 -0.07925781 13.359375 -0.08789062 C14.77089844 -0.09272461 14.77089844 -0.09272461 16.2109375 -0.09765625 C17.51490479 -0.10551147 17.51490479 -0.10551147 18.84521484 -0.11352539 C21 0 21 0 23 1 C22.49396008 3.16874252 22.00016187 4.99967627 21 7 C16.38 7 11.76 7 7 7 C6.34 8.32 5.68 9.64 5 11 C5 10.34 5 9.68 5 9 C3.35 9.33 1.7 9.66 0 10 C0 6.7 0 3.4 0 0 Z " fill="#062967" transform="translate(81,117)"/>
<path d="M0 0 C0 0.33 0 0.66 0 1 C-1.28583984 0.96519531 -1.28583984 0.96519531 -2.59765625 0.9296875 C-8.80373869 0.83173355 -14.1571222 0.82590593 -20 3 C-20 4.32 -20 5.64 -20 7 C-21.6396875 7.556875 -21.6396875 7.556875 -23.3125 8.125 C-26.54588489 9.4798799 -26.98576455 9.97658038 -28.9375 13.1875 C-29.288125 14.115625 -29.63875 15.04375 -30 16 C-30.33 16 -30.66 16 -31 16 C-31.62231535 6.12938711 -31.62231535 6.12938711 -29.3125 1.9375 C-21.26036885 -4.80888015 -9.4016914 -2.54961123 0 0 Z " fill="#1CB09E" transform="translate(132,48)"/>
<path d="M0 0 C3.63 0 7.26 0 11 0 C12 1 12 1 12.1328125 2.8125 C12.13023438 3.534375 12.12765625 4.25625 12.125 5 C12.12757812 5.721875 12.13015625 6.44375 12.1328125 7.1875 C12 9 12 9 11 10 C8.32941149 10.14115161 5.67567762 10.04247107 3 10 C3 11.98 3 13.96 3 16 C2.67 16 2.34 16 2 16 C1.67 18.97 1.34 21.94 1 25 C0.67 25 0.34 25 0 25 C0 16.75 0 8.5 0 0 Z " fill="#E1EAF5" transform="translate(88,123)"/>
<path d="M0 0 C6.27 0.33 12.54 0.66 19 1 C19 1.66 19 2.32 19 3 C14.9472484 3.98248524 11.16138263 4.08159574 7 4 C7 5.98 7 7.96 7 10 C6.34 9.67 5.68 9.34 5 9 C4.566875 10.7015625 4.566875 10.7015625 4.125 12.4375 C3.75375 13.613125 3.3825 14.78875 3 16 C2.34 16.33 1.68 16.66 1 17 C1.33 20.96 1.66 24.92 2 29 C1.34 29 0.68 29 0 29 C0 19.43 0 9.86 0 0 Z " fill="#052765" transform="translate(110,118)"/>
<path d="M0 0 C0.33 0 0.66 0 1 0 C1 4.62 1 9.24 1 14 C2.74667969 13.96519531 4.49335937 13.93039063 6.29296875 13.89453125 C8.59113621 13.86639042 10.88931408 13.83909058 13.1875 13.8125 C14.91323242 13.77479492 14.91323242 13.77479492 16.67382812 13.73632812 C18.34155273 13.72182617 18.34155273 13.72182617 20.04296875 13.70703125 C21.06414795 13.6913208 22.08532715 13.67561035 23.13745117 13.65942383 C26.46414667 14.05522257 28.32367402 15.01528528 31 17 C32.70803026 21.27007565 31.67543449 25.57215169 31 30 C31.99 30 32.98 30 34 30 C33.67 28.35 33.34 26.7 33 25 C33.99 25 34.98 25 36 25 C36 25.66 36 26.32 36 27 C36.66 27 37.32 27 38 27 C38.33 25.68 38.66 24.36 39 23 C39.99 23.33 40.98 23.66 42 24 C38.98689787 28.35393258 35.69019091 30.61821358 31 32.875 C30.38382813 33.1946875 29.76765625 33.514375 29.1328125 33.84375 C26.44785713 35.16894256 24.58067619 36.07258452 21.5625 35.6953125 C21.046875 35.46585938 20.53125 35.23640625 20 35 C20.84884766 34.60167969 20.84884766 34.60167969 21.71484375 34.1953125 C22.81505859 33.66550781 22.81505859 33.66550781 23.9375 33.125 C24.66839844 32.77695313 25.39929688 32.42890625 26.15234375 32.0703125 C28.16332459 31.1315023 28.16332459 31.1315023 29 29 C29.07033769 27.12620395 29.0843022 25.24998898 29.0625 23.375 C29.05347656 22.37210938 29.04445312 21.36921875 29.03515625 20.3359375 C29.02355469 19.56507812 29.01195312 18.79421875 29 18 C22.85851059 15.88105695 17.02694027 15.57688232 10.5625 15.375 C9.54478516 15.33632812 8.52707031 15.29765625 7.47851562 15.2578125 C4.98595368 15.16419515 2.49300261 15.08103858 0 15 C0 10.05 0 5.1 0 0 Z " fill="#4392B3" transform="translate(100,55)"/>
<path d="M0 0 C0.33 0 0.66 0 1 0 C1.33 6.27 1.66 12.54 2 19 C3.32 18.34 4.64 17.68 6 17 C6 17.66 6 18.32 6 19 C12.93 19.495 12.93 19.495 20 20 C19.67 20.99 19.34 21.98 19 23 C14.5013142 25.02440861 8.96891438 26.35019016 4 26 C1.52552276 24.11441437 1.00698149 23.02094446 0 20 C-0.08106686 18.44578271 -0.10756898 16.88832973 -0.09765625 15.33203125 C-0.09443359 14.43935547 -0.09121094 13.54667969 -0.08789062 12.62695312 C-0.07951172 11.69818359 -0.07113281 10.76941406 -0.0625 9.8125 C-0.05798828 8.87212891 -0.05347656 7.93175781 -0.04882812 6.96289062 C-0.03704626 4.64186288 -0.02059558 2.32096356 0 0 Z " fill="#032969" transform="translate(166,122)"/>
<path d="M0 0 C2.43816585 -0.0809723 4.87364384 -0.14046972 7.3125 -0.1875 C8.34793945 -0.22520508 8.34793945 -0.22520508 9.40429688 -0.26367188 C12.30962669 -0.3057781 14.45819124 -0.33540542 16.96875 1.21875 C18.30055824 3.51914605 18.30237367 5.04540568 18.1875 7.6875 C18.16042969 8.49574219 18.13335937 9.30398437 18.10546875 10.13671875 C18.05326172 11.05904297 18.05326172 11.05904297 18 12 C17.34 11.34 16.68 10.68 16 10 C16.375 6.875 16.375 6.875 17 4 C14.02934491 4.34227572 14.02934491 4.34227572 11 5 C10.67 5.66 10.34 6.32 10 7 C6.04 6.67 2.08 6.34 -2 6 C-1.01 5.67 -0.02 5.34 1 5 C0.67 3.35 0.34 1.7 0 0 Z " fill="#072968" transform="translate(145,129)"/>
<path d="M0 0 C1.8125 0.8125 1.8125 0.8125 3.8125 2.8125 C3.255625 3.039375 2.69875 3.26625 2.125 3.5 C-0.38422664 4.782439 -0.38422664 4.782439 -2.625 7.3125 C-5.2049995 9.82957268 -6.81912181 10.71777709 -10.1875 11.8125 C-11.115625 12.18375 -12.04375 12.555 -13 12.9375 C-13.721875 13.22625 -14.44375 13.515 -15.1875 13.8125 C-15.1875 11.8325 -15.1875 9.8525 -15.1875 7.8125 C-12.09940305 6.04787317 -10.95437864 5.8125 -7.1875 5.8125 C-7.1875 4.8225 -7.1875 3.8325 -7.1875 2.8125 C-4.71388876 0.88858015 -3.1874555 -0.27321047 0 0 Z " fill="#3CC576" transform="translate(71.1875,66.1875)"/>
<path d="M0 0 C0.66 0 1.32 0 2 0 C2.99 1.98 3.98 3.96 5 6 C5 4.02 5 2.04 5 0 C5.309375 0.639375 5.61875 1.27875 5.9375 1.9375 C9.09768575 5.09768575 12.68333908 4.81900793 17 5 C15.25 8.875 15.25 8.875 13 10 C11.12620395 10.07033769 9.24998898 10.0843022 7.375 10.0625 C6.37210938 10.05347656 5.36921875 10.04445312 4.3359375 10.03515625 C3.56507812 10.02355469 2.79421875 10.01195312 2 10 C0.68373308 6.38026598 0 3.90432869 0 0 Z " fill="#03286A" transform="translate(7,125)"/>
<path d="M0 0 C2.06298828 -0.34057617 2.06298828 -0.34057617 4.5703125 -0.29296875 C5.46621094 -0.28330078 6.36210937 -0.27363281 7.28515625 -0.26367188 C8.69087891 -0.2259668 8.69087891 -0.2259668 10.125 -0.1875 C11.06988281 -0.17396484 12.01476562 -0.16042969 12.98828125 -0.14648438 C15.32608779 -0.11106306 17.66276237 -0.06167271 20 0 C19.67 1.65 19.34 3.3 19 5 C17.08364783 5.05423638 15.16685075 5.09289963 13.25 5.125 C11.64898437 5.15980469 11.64898437 5.15980469 10.015625 5.1953125 C7.02498406 5.00161814 5.55942149 4.43686821 3 3 C0.33290931 2.83249586 0.33290931 2.83249586 -2 3 C-1.34 2.01 -0.68 1.02 0 0 Z " fill="#062765" transform="translate(141,117)"/>
<path d="M0 0 C0 2.31 0 4.62 0 7 C-0.639375 7.103125 -1.27875 7.20625 -1.9375 7.3125 C-2.618125 7.539375 -3.29875 7.76625 -4 8 C-4.33 8.99 -4.66 9.98 -5 11 C-5.66 11 -6.32 11 -7 11 C-7 10.34 -7 9.68 -7 9 C-7.99 9 -8.98 9 -10 9 C-10 9.66 -10 10.32 -10 11 C-9.34 11.33 -8.68 11.66 -8 12 C-8.33 12.66 -8.66 13.32 -9 14 C-9.99 14 -10.98 14 -12 14 C-12 10.04 -12 6.08 -12 2 C-11.01 1.67 -10.02 1.34 -9 1 C-7.68 2.32 -6.36 3.64 -5 5 C-5 4.01 -5 3.02 -5 2 C-1.125 0 -1.125 0 0 0 Z " fill="#2685BD" transform="translate(143,71)"/>
<path d="M0 0 C-0.66 0 -1.32 0 -2 0 C-2.66 1.32 -3.32 2.64 -4 4 C-9.94 4 -15.88 4 -22 4 C-21.34 2.68 -20.68 1.36 -20 0 C-17.2512576 -0.49839835 -14.88753724 -0.74160303 -12.125 -0.8125 C-11.40441406 -0.85052734 -10.68382812 -0.88855469 -9.94140625 -0.92773438 C-6.46959397 -1.07798776 -3.31167889 -1.13568046 0 0 Z " fill="#012870" transform="translate(30,143)"/>
<path d="M0 0 C-0.33 1.32 -0.66 2.64 -1 4 C-1.66 4 -2.32 4 -3 4 C-3.185625 4.78375 -3.37125 5.5675 -3.5625 6.375 C-5 9 -5 9 -8.4375 10.375 C-12 11 -12 11 -15 10 C-15 8.68 -15 7.36 -15 6 C-11.535 5.505 -11.535 5.505 -8 5 C-7.9175 4.38125 -7.835 3.7625 -7.75 3.125 C-7 1 -7 1 -5.125 -0.3125 C-3 -1 -3 -1 0 0 Z " fill="#01286F" transform="translate(107,127)"/>
<path d="M0 0 C11.73417302 -0.55485582 11.73417302 -0.55485582 16 3 C17 4 17 4 17.0625 7.0625 C17.041875 8.031875 17.02125 9.00125 17 10 C16.01 8.68 15.02 7.36 14 6 C13.34 6.66 12.68 7.32 12 8 C11.01 7.67 10.02 7.34 9 7 C6.60509014 6.93029948 4.20832309 6.91551997 1.8125 6.9375 C0.54019531 6.94652344 -0.73210938 6.95554688 -2.04296875 6.96484375 C-3.01878906 6.97644531 -3.99460937 6.98804688 -5 7 C-5 6.67 -5 6.34 -5 6 C-4.31292969 5.96261719 -3.62585937 5.92523438 -2.91796875 5.88671875 C-2.01691406 5.82097656 -1.11585937 5.75523437 -0.1875 5.6875 C1.15248047 5.60048828 1.15248047 5.60048828 2.51953125 5.51171875 C5.30604 4.93686419 6.24135754 4.1793144 8 2 C5.36 1.67 2.72 1.34 0 1 C0 0.67 0 0.34 0 0 Z " fill="#1C3B76" transform="translate(15,129)"/>
<path d="M0 0 C2 3.75 2 3.75 2 6 C-0.5614657 8.29648649 -1.47967572 9 -5 9 C-5 9.99 -5 10.98 -5 12 C-7.90600261 13.25664978 -9.79604584 14 -13 14 C-13 12.02 -13 10.04 -13 8 C-12.34 8.66 -11.68 9.32 -11 10 C-10.54625 9.505 -10.0925 9.01 -9.625 8.5 C-8 7 -8 7 -6 7 C-5.67 6.34 -5.34 5.68 -5 5 C-4.34 4.01 -3.68 3.02 -3 2 C-2.01 2 -1.02 2 0 2 C0 1.34 0 0.68 0 0 Z " fill="#68D74D" transform="translate(69,60)"/>
<path d="M0 0 C0 4.29 0 8.58 0 13 C-5 15 -5 15 -8 14 C-7.67 13.01 -7.34 12.02 -7 11 C-6.34 11 -5.68 11 -5 11 C-5 7.7 -5 4.4 -5 1 C-1 0 -1 0 0 0 Z " fill="#02276D" transform="translate(193,131)"/>
<path d="M0 0 C0.33 0 0.66 0 1 0 C1 10.23 1 20.46 1 31 C0.67 31 0.34 31 0 31 C-0.33 27.7 -0.66 24.4 -1 21 C-4.11785113 21.64644661 -4.11785113 21.64644661 -5 24 C-5 23.34 -5 22.68 -5 22 C-5.66 21.67 -6.32 21.34 -7 21 C-6.01 20.67 -5.02 20.34 -4 20 C-1.98792858 17.00528905 -1.7528725 14.5559671 -1.8125 11 C-1.81894531 10.154375 -1.82539062 9.30875 -1.83203125 8.4375 C-1.98845924 6.16747523 -2.36910186 4.18038396 -3 2 C-2.34 2 -1.68 2 -1 2 C-0.67 1.34 -0.34 0.68 0 0 Z " fill="#D9E5F3" transform="translate(109,117)"/>
<path d="M0 0 C1.93166016 0.01740234 1.93166016 0.01740234 3.90234375 0.03515625 C5.19269531 0.04417969 6.48304687 0.05320313 7.8125 0.0625 C8.81152344 0.07410156 9.81054688 0.08570313 10.83984375 0.09765625 C10.83984375 1.74765625 10.83984375 3.39765625 10.83984375 5.09765625 C6.87984375 5.09765625 2.91984375 5.09765625 -1.16015625 5.09765625 C-1.49015625 4.10765625 -1.82015625 3.11765625 -2.16015625 2.09765625 C-2.82015625 1.76765625 -3.48015625 1.43765625 -4.16015625 1.09765625 C-3.16015625 0.09765625 -3.16015625 0.09765625 0 0 Z " fill="#072662" transform="translate(119.16015625,129.90234375)"/>
<path d="M0 0 C1.32 0 2.64 0 4 0 C4 -0.66 4 -1.32 4 -2 C6.475 -1.505 6.475 -1.505 9 -1 C7.3317478 1.04426774 6.45503028 1.92260527 3.81103516 2.37231445 C2.97878418 2.3693335 2.1465332 2.36635254 1.2890625 2.36328125 C-0.08378906 2.36231445 -0.08378906 2.36231445 -1.484375 2.36132812 C-2.43828125 2.34521484 -3.3921875 2.32910156 -4.375 2.3125 C-5.32117188 2.31572266 -6.26734375 2.31894531 -7.2421875 2.32226562 C-11.89409638 2.28633094 -15.79681099 2.24468179 -20 0 C-16.86628788 -0.86269251 -13.79362609 -1.34242828 -10.5625 -1.6875 C-9.17224609 -1.84798828 -9.17224609 -1.84798828 -7.75390625 -2.01171875 C-4.68599432 -1.99866381 -2.79896273 -1.18785248 0 0 Z " fill="#3A8FB1" transform="translate(86,91)"/>
<path d="M0 0 C0 0.66 0 1.32 0 2 C-0.57443848 2.04487549 -1.14887695 2.08975098 -1.74072266 2.13598633 C-4.37002994 2.34869374 -6.99733361 2.58043211 -9.625 2.8125 C-10.52863281 2.88275391 -11.43226562 2.95300781 -12.36328125 3.02539062 C-17.58393346 3.50172751 -21.37864673 4.33944173 -26 7 C-26.66 7 -27.32 7 -28 7 C-28.33 7.99 -28.66 8.98 -29 10 C-29.66 9.34 -30.32 8.68 -31 8 C-31.66 7.67 -32.32 7.34 -33 7 C-21.76328424 1.4030047 -12.52295481 -0.38730788 0 0 Z " fill="#ACDC89" transform="translate(100,46)"/>
<path d="M0 0 C2.475 0.495 2.475 0.495 5 1 C4.01 1.66 3.02 2.32 2 3 C1.4225 3.61875 0.845 4.2375 0.25 4.875 C-3.2509018 8.18140725 -7.04372123 11 -12 11 C-11.67 12.98 -11.34 14.96 -11 17 C-13 15.1875 -13 15.1875 -15 13 C-15 12.01 -15 11.02 -15 10 C-12.25374572 8.00272416 -9.53590358 6.81596176 -6.375 5.5625 C-3.06152944 4.02848585 -1.80906887 3.08605865 0 0 Z " fill="#27BA8F" transform="translate(72,69)"/>
<path d="M0 0 C0.33 0 0.66 0 1 0 C1.33 6.27 1.66 12.54 2 19 C3.32 18.34 4.64 17.68 6 17 C6 17.66 6 18.32 6 19 C6.99 19.33 7.98 19.66 9 20 C8.01 20.33 7.02 20.66 6 21 C6.66 22.65 7.32 24.3 8 26 C4.88687166 25.74758419 3.42741164 25.49192661 1.34375 23.09375 C-0.60186487 18.61431111 -0.32045405 14.51134574 -0.1875 9.6875 C-0.17396484 8.75615234 -0.16042969 7.82480469 -0.14648438 6.86523438 C-0.11126882 4.57622354 -0.06202099 2.28841542 0 0 Z " fill="#214076" transform="translate(166,122)"/>
<path d="M0 0 C4.62 0 9.24 0 14 0 C13.67 1.65 13.34 3.3 13 5 C8.38 5 3.76 5 -1 5 C-0.67 4.34 -0.34 3.68 0 3 C2.31 3 4.62 3 7 3 C7 2.34 7 1.68 7 1 C4.69 1 2.38 1 0 1 C0 0.67 0 0.34 0 0 Z " fill="#062763" transform="translate(15,118)"/>
<path d="M0 0 C7.92 0.33 15.84 0.66 24 1 C24.12375 4.58875 24.12375 4.58875 24.25 8.25 C24.28641602 8.99668945 24.32283203 9.74337891 24.36035156 10.51269531 C24.4195447 14.06237422 24.24749207 15.69495164 21.984375 18.484375 C21.32953125 18.98453125 20.6746875 19.4846875 20 20 C20 18.02 20 16.04 20 14 C20.99 13.67 21.98 13.34 23 13 C23 9.37 23 5.74 23 2 C15.74 2 8.48 2 1 2 C0.67 1.34 0.34 0.68 0 0 Z " fill="#299DA2" transform="translate(76,69)"/>
<path d="M0 0 C5.94 0 11.88 0 18 0 C18 0.66 18 1.32 18 2 C16.86820313 2.13277344 15.73640625 2.26554687 14.5703125 2.40234375 C13.08851821 2.5805342 11.60674864 2.75893029 10.125 2.9375 C9.00544922 3.06801758 9.00544922 3.06801758 7.86328125 3.20117188 C3.8046769 3.63326063 3.8046769 3.63326063 0 5 C0 3.35 0 1.7 0 0 Z " fill="#012871" transform="translate(111,119)"/>
<path d="M0 0 C3 2 3 2 4 5 C4.06802967 6.72795352 4.08495645 8.45835365 4.0625 10.1875 C4.05347656 11.08855469 4.04445313 11.98960937 4.03515625 12.91796875 C4.02355469 13.60503906 4.01195313 14.29210937 4 15 C3.67 15 3.34 15 3 15 C2.67 13.02 2.34 11.04 2 9 C0.02 9.33 -1.96 9.66 -4 10 C-4 8.68 -4 7.36 -4 6 C-3.34 6 -2.68 6 -2 6 C-1.34 4.02 -0.68 2.04 0 0 Z " fill="#1E3D76" transform="translate(104,118)"/>
<path d="M0 0 C-1.44253657 3.36591866 -3.33264727 5.51047079 -6 8 C-9.875 6.25 -9.875 6.25 -11 4 C-10.01 4 -9.02 4 -8 4 C-8 3.34 -8 2.68 -8 2 C-4.91190305 0.23537317 -3.76687864 0 0 0 Z " fill="#0FA3AF" transform="translate(72,82)"/>
<path d="M0 0 C1.32 0 2.64 0 4 0 C4 0.99 4 1.98 4 3 C3.01 3 2.02 3 1 3 C0.95875 3.5775 0.9175 4.155 0.875 4.75 C-0.63825201 8.64121944 -4.39757996 10.19878998 -8 12 C-7.625 10.0625 -7.625 10.0625 -7 8 C-6.34 7.67 -5.68 7.34 -5 7 C-4.67 6.01 -4.34 5.02 -4 4 C-3.34 4 -2.68 4 -2 4 C-2 3.34 -2 2.68 -2 2 C-1.34 2 -0.68 2 0 2 C0 1.34 0 0.68 0 0 Z " fill="#75DD3A" transform="translate(65,59)"/>
<path d="M0 0 C0.33 1.98 0.66 3.96 1 6 C-5.52307692 6.36923077 -5.52307692 6.36923077 -7.9375 4.5 C-8.4634375 3.7575 -8.4634375 3.7575 -9 3 C-8.34 3 -7.68 3 -7 3 C-7 2.34 -7 1.68 -7 1 C-4.53721199 -0.231394 -2.7204945 -0.07159196 0 0 Z " fill="#153574" transform="translate(185,153)"/>
<path d="M0 0 C0.33 0 0.66 0 1 0 C1 1.98 1 3.96 1 6 C5.29 6 9.58 6 14 6 C14 7.98 14 9.96 14 12 C13.67 12 13.34 12 13 12 C13 10.35 13 8.7 13 7 C12.02417969 7.0721875 11.04835937 7.144375 10.04296875 7.21875 C8.13451172 7.35796875 8.13451172 7.35796875 6.1875 7.5 C4.29064453 7.63921875 4.29064453 7.63921875 2.35546875 7.78125 C0.24021483 7.91914781 -1.88025592 8 -4 8 C-3.67 6.35 -3.34 4.7 -3 3 C-2.34 3.33 -1.68 3.66 -1 4 C-0.67 2.68 -0.34 1.36 0 0 Z " fill="#274379" transform="translate(117,123)"/>
<path d="M0 0 C0.97195312 -0.020625 1.94390625 -0.04125 2.9453125 -0.0625 C3.87859375 -0.06765625 4.811875 -0.0728125 5.7734375 -0.078125 C6.63114746 -0.0874707 7.48885742 -0.09681641 8.37255859 -0.10644531 C11.07139074 0.32064063 11.93491367 1.16066439 13.625 3.25 C13.295 3.91 12.965 4.57 12.625 5.25 C12.14546875 4.76917969 11.6659375 4.28835937 11.171875 3.79296875 C7.4974167 1.56687822 4.0983624 1.68506856 -0.125 1.5625 C-1.31416016 1.51125977 -1.31416016 1.51125977 -2.52734375 1.45898438 C-4.47607504 1.37680896 -6.42551362 1.31171955 -8.375 1.25 C-8.375 1.91 -8.375 2.57 -8.375 3.25 C-10.025 3.91 -11.675 4.57 -13.375 5.25 C-10.225195 -1.259597 -6.88449149 0.03623417 0 0 Z " fill="#122E5F" transform="translate(180.375,116.75)"/>
<path d="M0 0 C1.76923828 0.01353516 1.76923828 0.01353516 3.57421875 0.02734375 C4.47785156 0.03894531 5.38148437 0.05054688 6.3125 0.0625 C6.3125 0.3925 6.3125 0.7225 6.3125 1.0625 C2.3525 1.0625 -1.6075 1.0625 -5.6875 1.0625 C-5.6875 1.7225 -5.6875 2.3825 -5.6875 3.0625 C-7.41276042 4.0390625 -9.13802083 5.015625 -10.86328125 5.9921875 C-12.50732289 6.95678581 -14.10150588 8.00517059 -15.6875 9.0625 C-14.41840537 5.14945821 -13.22493024 3.20639712 -9.6875 1.0625 C-6.26517028 -0.07827657 -3.60076783 -0.03565117 0 0 Z " fill="#60C7A8" transform="translate(116.6875,45.9375)"/>
<path d="M0 0 C0.96516243 3.00272755 1.22393475 5.04215769 0 8 C-0.99 8.33 -1.98 8.66 -3 9 C-3.33 11.64 -3.66 14.28 -4 17 C-4.33 17 -4.66 17 -5 17 C-5.34889612 11.18506473 -5.22411698 7.08418446 -2 2 C-1.34 1.34 -0.68 0.68 0 0 Z " fill="#96DC55" transform="translate(60,59)"/>
<path d="M0 0 C0.66 0.33 1.32 0.66 2 1 C2 2.32 2 3.64 2 5 C0.3603125 5.556875 0.3603125 5.556875 -1.3125 6.125 C-4.54588489 7.4798799 -4.98576455 7.97658038 -6.9375 11.1875 C-7.288125 12.115625 -7.63875 13.04375 -8 14 C-8.33 14 -8.66 14 -9 14 C-9.3125 11.8125 -9.3125 11.8125 -9 9 C-6.625 6.1875 -6.625 6.1875 -4 4 C-3.34 4 -2.68 4 -2 4 C-2 3.01 -2 2.02 -2 1 C-1.34 0.67 -0.68 0.34 0 0 Z " fill="#09B0A8" transform="translate(110,50)"/>
<path d="M0 0 C3.3 0 6.6 0 10 0 C9.67 1.32 9.34 2.64 9 4 C6.36 4 3.72 4 1 4 C0.67 2.68 0.34 1.36 0 0 Z " fill="#D8E4EF" transform="translate(179,148)"/>
<path d="M0 0 C0.45375 0.66 0.9075 1.32 1.375 2 C1.91125 2.66 2.4475 3.32 3 4 C3.66 4 4.32 4 5 4 C5.33 3.34 5.66 2.68 6 2 C6.66 2 7.32 2 8 2 C7.67 3.65 7.34 5.3 7 7 C4.03 7 1.06 7 -2 7 C-1.34 4.69 -0.68 2.38 0 0 Z " fill="#284275" transform="translate(49,141)"/>
<path d="M0 0 C0.6875 1.75 0.6875 1.75 1 4 C-0.125 6.1875 -0.125 6.1875 -2 8 C-4.6875 8.75 -4.6875 8.75 -7 9 C-7.33 7.35 -7.66 5.7 -8 4 C-4.535 3.505 -4.535 3.505 -1 3 C-0.67 2.01 -0.34 1.02 0 0 Z " fill="#062663" transform="translate(100,129)"/>
<path d="M0 0 C0 0.66 0 1.32 0 2 C-2.31 2.33 -4.62 2.66 -7 3 C-7.33 4.98 -7.66 6.96 -8 9 C-9.41377341 6.36095629 -10.37240135 3.92879371 -11 1 C-7.32589215 -0.17571451 -3.83070817 -0.07366746 0 0 Z " fill="#0F327C" transform="translate(22,119)"/>
<path d="M0 0 C1.2065625 0.0309375 1.2065625 0.0309375 2.4375 0.0625 C0.9525 2.5375 0.9525 2.5375 -0.5625 5.0625 C2.7375 5.0625 6.0375 5.0625 9.4375 5.0625 C9.4375 5.3925 9.4375 5.7225 9.4375 6.0625 C5.4775 6.0625 1.5175 6.0625 -2.5625 6.0625 C-2.8925 4.4125 -3.2225 2.7625 -3.5625 1.0625 C-2.5625 0.0625 -2.5625 0.0625 0 0 Z " fill="#DDEBFB" transform="translate(148.5625,122.9375)"/>
<path d="M0 0 C2.69082872 0.17635452 5.32851446 0.61835921 8 1 C8.33 1.99 8.66 2.98 9 4 C6.69 4.33 4.38 4.66 2 5 C1.67 4.01 1.34 3.02 1 2 C0.34 1.67 -0.32 1.34 -1 1 C-0.67 0.67 -0.34 0.34 0 0 Z " fill="#02286C" transform="translate(116,130)"/>
<path d="M0 0 C1.8125 0.8125 1.8125 0.8125 3.8125 2.8125 C-1.6325 4.2975 -1.6325 4.2975 -7.1875 5.8125 C-7.1875 4.8225 -7.1875 3.8325 -7.1875 2.8125 C-4.71388876 0.88858015 -3.1874555 -0.27321047 0 0 Z " fill="#56CB68" transform="translate(71.1875,66.1875)"/>
<path d="M0 0 C0.33 0 0.66 0 1 0 C1.66 4.29 2.32 8.58 3 13 C1.68 12.34 0.36 11.68 -1 11 C-1.02688151 9.35425434 -1.04634123 7.70838587 -1.0625 6.0625 C-1.07410156 5.14597656 -1.08570313 4.22945313 -1.09765625 3.28515625 C-1 1 -1 1 0 0 Z " fill="#2A4274" transform="translate(138,120)"/>
<path d="M0 0 C0.66 0.33 1.32 0.66 2 1 C-0.17220355 3.73277221 -1.85827965 5.72888915 -5.3359375 6.5546875 C-7.56274452 6.78650022 -9.76217118 6.94637012 -12 7 C-9.5129261 5.34195074 -7.02682498 3.80125522 -4.4375 2.3125 C-3.65246094 1.85488281 -2.86742187 1.39726563 -2.05859375 0.92578125 C-1.37925781 0.62027344 -0.69992188 0.31476563 0 0 Z " fill="#E1F5FC" transform="translate(136,84)"/>
<path d="M0 0 C0.99 0.33 1.98 0.66 3 1 C0.61042731 4.24299151 -1.2047869 6.50902342 -5 8 C-5.33 6.02 -5.66 4.04 -6 2 C-5.01 2 -4.02 2 -3 2 C-3 2.66 -3 3.32 -3 4 C-2.34 4 -1.68 4 -1 4 C-0.67 2.68 -0.34 1.36 0 0 Z " fill="#3F88B8" transform="translate(139,78)"/>
<path d="M0 0 C0 0.66 0 1.32 0 2 C-1.32 2 -2.64 2 -4 2 C-4 2.66 -4 3.32 -4 4 C-4.66 4 -5.32 4 -6 4 C-6 4.66 -6 5.32 -6 6 C-6.99 6 -7.98 6 -9 6 C-8.6875 4.125 -8.6875 4.125 -8 2 C-4.77208445 -0.1519437 -3.71599191 -0.20086443 0 0 Z " fill="#8EE523" transform="translate(69,57)"/>
<path d="M0 0 C2.35953094 2.35953094 2.49141413 3.77895617 3 7 C0.03 7 -2.94 7 -6 7 C-5.34 6.34 -4.68 5.68 -4 5 C-2.68 5 -1.36 5 0 5 C0 3.35 0 1.7 0 0 Z " fill="#374E7B" transform="translate(76,141)"/>
<path d="M0 0 C0.66 0.33 1.32 0.66 2 1 C0.71937515 2.7074998 -0.61767557 4.37373596 -2 6 C-2.66 6 -3.32 6 -4 6 C-4 8.31 -4 10.62 -4 13 C-4.33 13 -4.66 13 -5 13 C-5.61538462 5.73846154 -5.61538462 5.73846154 -2.5 2 C-1.675 1.34 -0.85 0.68 0 0 Z " fill="#EBFDD4" transform="translate(75,51)"/>
<path d="M0 0 C2 2 2 2 2 5 C0.68 5 -0.64 5 -2 5 C-2 5.66 -2 6.32 -2 7 C-2.66 7 -3.32 7 -4 7 C-4.33 5.35 -4.66 3.7 -5 2 C-3.68 2 -2.36 2 -1 2 C-0.67 1.34 -0.34 0.68 0 0 Z " fill="#032968" transform="translate(29,133)"/>
<path d="M0 0 C-1 3 -1 3 -4 5 C-6.1875 4.625 -6.1875 4.625 -8 4 C-6.07740436 0.15480872 -4.12054651 0 0 0 Z " fill="#4FCD65" transform="translate(64,72)"/>
<path d="M0 0 C-3.1254959 2.64465038 -6.08788267 3.84414715 -10 5 C-7.62417533 -0.26075462 -5.61350876 -0.1220328 0 0 Z " fill="#0FB59E" transform="translate(80,71)"/>
<path d="M0 0 C0.33 0 0.66 0 1 0 C1.1953125 2.05078125 1.390625 4.1015625 1.5859375 6.15234375 C1.72257812 6.76207031 1.85921875 7.37179688 2 8 C2.66 8.33 3.32 8.66 4 9 C2.68 9 1.36 9 0 9 C-0.66 6.69 -1.32 4.38 -2 2 C-1.34 2 -0.68 2 0 2 C0 1.34 0 0.68 0 0 Z " fill="#E5F2F9" transform="translate(79,139)"/>
<path d="M0 0 C1.32 0 2.64 0 4 0 C4 0.99 4 1.98 4 3 C-0.625 5.125 -0.625 5.125 -4 4 C-3.34 4 -2.68 4 -2 4 C-2 3.34 -2 2.68 -2 2 C-1.34 2 -0.68 2 0 2 C0 1.34 0 0.68 0 0 Z " fill="#80E132" transform="translate(65,59)"/>
<path d="M0 0 C0.33 0 0.66 0 1 0 C0.6875 3.375 0.6875 3.375 0 7 C-0.99 7.66 -1.98 8.32 -3 9 C-3 7.02 -3 5.04 -3 3 C-2.01 2.67 -1.02 2.34 0 2 C0 1.34 0 0.68 0 0 Z " fill="#3585B4" transform="translate(99,80)"/>
<path d="M0 0 C-0.639375 0.268125 -1.27875 0.53625 -1.9375 0.8125 C-4.33131686 1.88667752 -4.33131686 1.88667752 -5 5 C-5.66 4.34 -6.32 3.68 -7 3 C-7.66 2.67 -8.32 2.34 -9 2 C-3.375 -1.125 -3.375 -1.125 0 0 Z " fill="#B1E163" transform="translate(76,51)"/>
<path d="M0 0 C0.99 0 1.98 0 3 0 C2.67 1.98 2.34 3.96 2 6 C-1.875 4.25 -1.875 4.25 -3 2 C-2.01 2 -1.02 2 0 2 C0 1.34 0 0.68 0 0 Z " fill="#1EA8A9" transform="translate(64,84)"/>
<path d="M0 0 C2 3.75 2 3.75 2 6 C0.68 6 -0.64 6 -2 6 C-2.33 4.68 -2.66 3.36 -3 2 C-2.01 2 -1.02 2 0 2 C0 1.34 0 0.68 0 0 Z " fill="#7CD559" transform="translate(69,60)"/>
<path d="M0 0 C0 0.33 0 0.66 0 1 C-3.375 1.125 -3.375 1.125 -7 1 C-7.66 0.34 -8.32 -0.32 -9 -1 C-5.22102349 -2.0497157 -3.35080929 -2.10976881 0 0 Z " fill="#218ABB" transform="translate(85,91)"/>
</svg>
