<?xml version="1.0" encoding="UTF-8"?>
<svg version="1.1" xmlns="http://www.w3.org/2000/svg" width="128" height="128">
<path d="M0 0 C3.65445944 3.03152794 6.99819101 6.31882633 10.31298828 9.71484375 C10.91755859 10.29878906 11.52212891 10.88273437 12.14501953 11.484375 C22.49956223 22.27604878 26.91138033 38.33907464 26.81298828 52.90234375 C26.80726807 53.90048096 26.80154785 54.89861816 26.7956543 55.92700195 C26.41134284 72.02796984 20.379979 86.96308534 9.30908203 98.84765625 C2.05205483 105.63603003 -8.29381586 113.78275029 -18.41357422 115.05859375 C-19.53892578 114.8884375 -19.53892578 114.8884375 -20.68701172 114.71484375 C-22.90722132 111.38452935 -22.94555127 110.23748885 -22.99560547 106.34765625 C-23.02074219 105.29707031 -23.04587891 104.24648437 -23.07177734 103.1640625 C-23.10680876 100.95578592 -23.13808589 98.74744644 -23.16552734 96.5390625 C-23.20516602 94.95931641 -23.20516602 94.95931641 -23.24560547 93.34765625 C-23.26578735 91.90737061 -23.26578735 91.90737061 -23.28637695 90.43798828 C-23.7527704 87.26787703 -24.9602898 85.38036872 -26.68701172 82.71484375 C-26.68701172 82.05484375 -26.68701172 81.39484375 -26.68701172 80.71484375 C-25.85298828 80.56789063 -25.01896484 80.4209375 -24.15966797 80.26953125 C-15.08040308 78.45991832 -8.26140668 76.02244793 -2.24951172 68.77734375 C1.8259546 60.78942976 2.2687009 52.5203901 1.31298828 43.71484375 C0.22000518 41.04522301 -1.10272133 38.7311959 -2.57763672 36.2578125 C-4.37925456 32.12804766 -4.00261146 28.12637532 -3.76513672 23.6953125 C-3.69035789 20.84250013 -4.01313788 18.47670545 -4.68701172 15.71484375 C-6.2300185 16.31557959 -7.77134864 16.92062245 -9.31201172 17.52734375 C-10.23111328 17.88828125 -11.15021484 18.24921875 -12.09716797 18.62109375 C-14.8301668 19.70694869 -14.8301668 19.70694869 -17.74951172 21.52734375 C-21.10851842 22.88524008 -23.33827775 22.59108916 -26.86669922 22.046875 C-30.47579488 21.62198147 -34.0585358 21.58732863 -37.68701172 21.58984375 C-38.38697266 21.58774902 -39.08693359 21.5856543 -39.80810547 21.58349609 C-43.48655163 21.6016805 -46.95044418 21.85258469 -50.56201172 22.52734375 C-55.22495838 23.18711058 -58.38390052 21.23950448 -62.37841797 18.99609375 C-65.05148796 17.51256252 -67.75507341 16.56356273 -70.68701172 15.71484375 C-71.63100405 19.583782 -71.64948324 22.93781824 -71.43701172 26.90234375 C-71.37345331 31.63214883 -71.76526711 34.52865968 -74.18701172 38.58984375 C-78.35923112 45.9329499 -77.83255871 54.11689136 -75.83544922 62.1328125 C-73.33763207 68.97207374 -70.22355904 73.38799888 -63.68701172 76.71484375 C-58.82087456 78.79326165 -53.94104669 80.04124952 -48.68701172 80.71484375 C-48.97576172 81.25109375 -49.26451172 81.78734375 -49.56201172 82.33984375 C-50.81408839 84.77300532 -50.81408839 84.77300532 -51.43701172 87.83984375 C-52.68701172 90.71484375 -52.68701172 90.71484375 -55.31201172 92.15234375 C-60.70672033 93.05146185 -64.83580927 92.90784088 -69.49951172 89.90234375 C-71.47797963 87.92387583 -73.19053158 86.07770713 -74.68701172 83.71484375 C-74.68701172 83.05484375 -74.68701172 82.39484375 -74.68701172 81.71484375 C-77.65701172 80.72484375 -80.62701172 79.73484375 -83.68701172 78.71484375 C-82.94064453 79.40320313 -82.19427734 80.0915625 -81.42529297 80.80078125 C-78.5898548 83.81823756 -76.85285517 86.71635153 -74.87451172 90.33984375 C-71.81119547 95.67666199 -71.81119547 95.67666199 -66.81201172 99.02734375 C-62.2005837 100.14804936 -57.39763538 99.97547252 -52.68701172 99.71484375 C-52.63314543 101.83956951 -52.59428101 103.96468027 -52.56201172 106.08984375 C-52.53880859 107.27320312 -52.51560547 108.4565625 -52.49169922 109.67578125 C-52.68701172 112.71484375 -52.68701172 112.71484375 -54.68701172 114.71484375 C-66.10925397 114.71484375 -76.88113521 106.32147115 -84.68701172 98.71484375 C-98.8691234 82.94451452 -102.85936646 65.19470007 -101.92529297 44.54833984 C-100.53955312 28.06996204 -91.51163092 13.7889114 -79.31494141 3.06054688 C-57.56752049 -14.91662531 -22.97911065 -17.50536012 0 0 Z " fill="#000000" transform="translate(101.68701171875,12.28515625)"/>
</svg>
