<?xml version="1.0" encoding="UTF-8"?>
<svg version="1.1" xmlns="http://www.w3.org/2000/svg" width="128" height="128">
<path d="M0 0 C2.97401818 1.81923762 5.76639767 3.81363897 8.53515625 5.92578125 C9.1904834 6.42480957 9.84581055 6.92383789 10.52099609 7.43798828 C14.32070264 10.34922769 18.09242135 13.29443657 21.8515625 16.2578125 C26.40432838 19.84008283 31.01894855 23.33416459 35.66015625 26.80078125 C36.35326904 27.31858154 37.04638184 27.83638184 37.76049805 28.36987305 C39.35104587 29.55652392 40.9429349 30.74137682 42.53515625 31.92578125 C45.38017804 30.58497395 47.85464632 29.06809987 50.37890625 27.1953125 C51.4925354 26.37208496 51.4925354 26.37208496 52.62866211 25.53222656 C53.81987671 24.64422363 53.81987671 24.64422363 55.03515625 23.73828125 C55.86088135 23.12694336 56.68660645 22.51560547 57.53735352 21.88574219 C62.07199146 18.52283319 66.58809058 15.13599342 71.09375 11.734375 C71.99351563 11.05592529 72.89328125 10.37747559 73.8203125 9.6784668 C75.56101773 8.36412539 77.29938305 7.04667807 79.03515625 5.72583008 C80.22431641 4.82707153 80.22431641 4.82707153 81.4375 3.91015625 C82.48151978 3.11689941 82.48151978 3.11689941 83.54663086 2.30761719 C88.78830901 -1.33485038 93.23376946 -1.88922461 99.53515625 -1.07421875 C103.62382752 0.97011688 105.97237792 2.63634401 107.53515625 6.92578125 C107.73587472 9.66011513 107.82892414 12.29296899 107.82568359 15.02734375 C107.83240082 15.84080261 107.83911804 16.65426147 107.84603882 17.49237061 C107.86502122 20.17856976 107.86894277 22.86451922 107.87109375 25.55078125 C107.87752025 27.4187836 107.8842485 29.28678493 107.89126587 31.15478516 C107.90323832 35.06870865 107.9069466 38.98254386 107.90576172 42.89648438 C107.90555824 47.91381724 107.93289012 52.93058551 107.96730614 57.94778442 C107.98952981 61.80479539 107.9936007 65.66166934 107.99254227 69.51873779 C107.99490392 71.36873322 108.00375911 73.21873211 108.019207 75.06866455 C108.03878074 77.6542537 108.03306402 80.23861019 108.02099609 82.82421875 C108.03223511 83.5890155 108.04347412 84.35381226 108.05505371 85.14178467 C108.01361067 88.63205458 107.79979913 90.57184598 105.68234253 93.40374756 C102.80785499 95.44132899 100.95857828 95.38506403 97.45703125 95.31640625 C96.4112793 95.30641602 95.36552734 95.29642578 94.28808594 95.28613281 C92.96711914 95.2497168 91.64615234 95.21330078 90.28515625 95.17578125 C86.07765625 95.09328125 81.87015625 95.01078125 77.53515625 94.92578125 C77.20515625 79.41578125 76.87515625 63.90578125 76.53515625 47.92578125 C67.62515625 54.85578125 67.62515625 54.85578125 58.53515625 61.92578125 C47.49644168 70.40351404 47.49644168 70.40351404 44.53515625 71.92578125 C40.69233173 70.81522938 37.87307088 68.87221799 34.734375 66.44140625 C33.83912109 65.75304687 32.94386719 65.0646875 32.02148438 64.35546875 C31.09787109 63.63617188 30.17425781 62.916875 29.22265625 62.17578125 C27.39340718 60.76409222 25.56398266 59.35263051 23.734375 57.94140625 C22.92830811 57.31524414 22.12224121 56.68908203 21.29174805 56.04394531 C17.72978927 53.30693758 14.12881837 50.62102784 10.53515625 47.92578125 C10.20515625 63.43578125 9.87515625 78.94578125 9.53515625 94.92578125 C3.22390625 95.04953125 3.22390625 95.04953125 -3.21484375 95.17578125 C-5.19629395 95.23040527 -5.19629395 95.23040527 -7.21777344 95.28613281 C-8.26352539 95.29612305 -9.30927734 95.30611328 -10.38671875 95.31640625 C-11.4550293 95.33735352 -12.52333984 95.35830078 -13.62402344 95.37988281 C-17.31121282 94.79049022 -18.2333748 93.90458559 -20.46484375 90.92578125 C-20.85955106 88.10527452 -21.012391 85.67506766 -20.98242188 82.85595703 C-20.98943115 82.04571075 -20.99644043 81.23546448 -21.00366211 80.40066528 C-21.02125813 77.72379211 -21.00961185 75.04797759 -20.99609375 72.37109375 C-20.99878874 70.50788165 -21.00267121 68.64467091 -21.00769043 66.78146362 C-21.01358808 62.87582005 -21.00501592 58.97054243 -20.98632812 55.06494141 C-20.96357002 50.06567714 -20.97663994 45.06727334 -21.00061798 40.06804085 C-21.01509579 36.21948811 -21.01046034 32.37113815 -21.00010681 28.52257919 C-20.99744336 26.67983778 -21.00069585 24.83707779 -21.01002502 22.99435806 C-21.02021984 20.41387703 -21.00464808 17.83477338 -20.98242188 15.25439453 C-20.9905188 14.49678833 -20.99861572 13.73918213 -21.00695801 12.95861816 C-20.92521256 7.81836247 -19.69914503 4.89150678 -16.46484375 0.92578125 C-11.55374331 -2.42314012 -5.34342428 -2.32875068 0 0 Z " fill="#FE4130" transform="translate(20.46484375,17.07421875)"/>
<path d="M0 0 C0.09269161 8.66656004 0.1637603 17.33294938 0.20724869 25.999897 C0.22812133 30.02436077 0.25643235 34.04848535 0.30175781 38.07275391 C0.3452282 41.95663536 0.36913954 45.84019062 0.37950897 49.72429657 C0.38689831 51.20590093 0.40132818 52.68748749 0.42292023 54.16895294 C0.45197212 56.24486321 0.45595556 58.31942687 0.45410156 60.39550781 C0.46298401 61.57687317 0.47186646 62.75823853 0.48101807 63.97540283 C-0.10013487 67.62963879 -1.07485584 68.80107446 -4 71 C-6.84082031 71.45410156 -6.84082031 71.45410156 -10.078125 71.390625 C-11.23828125 71.37773438 -12.3984375 71.36484375 -13.59375 71.3515625 C-14.8003125 71.31804687 -16.006875 71.28453125 -17.25 71.25 C-18.47203125 71.23195313 -19.6940625 71.21390625 -20.953125 71.1953125 C-23.96954078 71.148181 -26.98437491 71.08239413 -30 71 C-30.46084813 64.28072044 -30.77325954 57.56555859 -30.98876953 50.83398438 C-31.07866359 48.55151289 -31.20105431 46.27006005 -31.35791016 43.99121094 C-32.59051987 25.60679684 -32.59051987 25.60679684 -28.28091431 19.60650635 C-24.08744846 15.39741134 -19.32988201 12.25559171 -14.20088196 9.2986145 C-11.08950689 7.46277012 -8.30035421 5.32557767 -5.4375 3.125 C-1.14225941 0 -1.14225941 0 0 0 Z " fill="#00A84A" transform="translate(128,41)"/>
<path d="M0 0 C0.58619614 0.40570724 1.17239227 0.81141449 1.77635193 1.22941589 C5.90779739 4.044673 9.80052719 6.52833477 14.47265625 8.36328125 C20.9669631 11.54760122 27.09568901 15.05707366 30 22 C33.43875094 37.67141391 31.27831299 55.14621354 30 71 C25.75022954 71.11611395 21.50086663 71.18722349 17.25 71.25 C16.0434375 71.28351563 14.836875 71.31703125 13.59375 71.3515625 C11.85351562 71.37089844 11.85351562 71.37089844 10.078125 71.390625 C9.00981445 71.41157227 7.94150391 71.43251953 6.84082031 71.45410156 C3.19749896 70.87172122 2.24640723 69.89401612 0 67 C-0.48101807 63.97540283 -0.48101807 63.97540283 -0.45410156 60.39550781 C-0.45468567 59.74143448 -0.45526978 59.08736115 -0.45587158 58.41346741 C-0.45309299 56.25947306 -0.42201548 54.10687644 -0.390625 51.953125 C-0.38316172 50.45669307 -0.37746919 48.96025136 -0.37347412 47.46380615 C-0.35822439 43.5311571 -0.31894912 39.59910193 -0.2746582 35.66668701 C-0.23369074 31.65157098 -0.21546001 27.63635869 -0.1953125 23.62109375 C-0.15245348 15.74712374 -0.08421103 7.87363581 0 0 Z " fill="#0084F6" transform="translate(0,41)"/>
<path d="M0 0 C4.39544898 3.95590408 5.33196138 8.32293462 5.75 14.125 C5.92483571 18.47345391 5.64019513 21.80285579 2.88574219 25.29882812 C-1.42301823 29.36741467 -6.27993977 32.6363034 -11.26416016 35.81835938 C-13.18719071 37.04970368 -15.04381768 38.32511754 -16.88671875 39.671875 C-23.15875 44.25 -23.15875 44.25 -24.5 44.25 C-24.7730182 38.82438373 -24.9719754 33.40279802 -25.10424805 27.97192383 C-25.15939582 26.12746534 -25.23434394 24.2834842 -25.32983398 22.44067383 C-26.10057754 7.17830277 -26.10057754 7.17830277 -22.18920898 2.46606445 C-14.98954507 -2.29835663 -7.87052854 -3.93526427 0 0 Z " fill="#FDBC00" transform="translate(123.5,17.75)"/>
<path d="M0 0 C2.8603432 1.89845788 4.79514125 3.30859204 5.77877808 6.68960571 C6.60230379 12.6590149 6.20131744 18.65255311 5.890625 24.6484375 C5.83540542 26.49529756 5.78522267 28.34231552 5.74023438 30.18945312 C5.61941561 34.7005287 5.42991522 39.20399724 5.203125 43.7109375 C1.1598834 41.4623078 -2.63938864 39.23628737 -6.27734375 36.36328125 C-7.04884766 35.75806641 -7.82035156 35.15285156 -8.61523438 34.52929688 C-9.78795898 33.59827148 -9.78795898 33.59827148 -10.984375 32.6484375 C-12.56103548 31.4073457 -14.13785294 30.16645328 -15.71484375 28.92578125 C-16.40344482 28.38042725 -17.0920459 27.83507324 -17.80151367 27.27319336 C-19.79328009 25.66989485 -19.79328009 25.66989485 -22.01879883 24.24755859 C-23.796875 22.7109375 -23.796875 22.7109375 -24.328125 18.91015625 C-24.33874392 17.40625141 -24.32753525 15.90206726 -24.296875 14.3984375 C-24.31234375 13.65142578 -24.3278125 12.90441406 -24.34375 12.13476562 C-24.30704271 6.90856531 -23.30866903 3.79772597 -19.796875 -0.2890625 C-13.75365791 -4.4099839 -6.22857216 -3.0320259 0 0 Z " fill="#E31C19" transform="translate(23.796875,18.2890625)"/>
</svg>
