<?xml version="1.0" encoding="UTF-8"?>
<svg version="1.1" xmlns="http://www.w3.org/2000/svg" width="128" height="128">
<path d="M0 0 C0.89162842 0.37125 0.89162842 0.37125 1.80126953 0.75 C19.98742322 8.48459847 30.65878444 20.14562913 38.95703125 38.1015625 C43.77060527 51.47861091 44.66432909 69.81512587 39 83 C38.62875 83.89162842 38.62875 83.89162842 38.25 84.80126953 C30.51540153 102.98742322 18.85437087 113.65878444 0.8984375 121.95703125 C-12.47861091 126.77060527 -30.81512587 127.66432909 -44 122 C-44.59441895 121.7525 -45.18883789 121.505 -45.80126953 121.25 C-63.98742322 113.51540153 -74.65878444 101.85437087 -82.95703125 83.8984375 C-87.77060527 70.52138909 -88.66432909 52.18487413 -83 39 C-82.7525 38.40558105 -82.505 37.81116211 -82.25 37.19873047 C-74.51540153 19.01257678 -62.85437087 8.34121556 -44.8984375 0.04296875 C-31.52138909 -4.77060527 -13.18487413 -5.66432909 0 0 Z " fill="#027BB9" transform="translate(86,3)"/>
<path d="M0 0 C4.7526282 1.64181701 7.26439607 3.79889396 10 8 C11.8970504 12.65777795 12.23539555 16.57555632 12.1953125 21.5859375 C12.1924826 22.28772125 12.18965271 22.989505 12.18673706 23.71255493 C12.17562512 25.93355028 12.15053834 28.15412845 12.125 30.375 C12.11495854 31.88931705 12.10583473 33.40364049 12.09765625 34.91796875 C12.07742461 38.61226556 12.03826118 42.30567095 12 46 C7.05 46 2.1 46 -3 46 C-3.05607422 42.92945312 -3.05607422 42.92945312 -3.11328125 39.796875 C-3.16196602 37.80775426 -3.21075395 35.81863457 -3.26245117 33.82958984 C-3.29564193 32.45047333 -3.32369217 31.07122289 -3.34643555 29.69189453 C-3.38008642 27.70577694 -3.43394729 25.72003441 -3.48828125 23.734375 C-3.51446533 22.54038086 -3.54064941 21.34638672 -3.56762695 20.11621094 C-4.02910678 16.79022084 -4.66561787 15.36845285 -7 13 C-8.93425486 12.37276792 -8.93425486 12.37276792 -11 12.5 C-12.0209375 12.48453125 -12.0209375 12.48453125 -13.0625 12.46875 C-15.88987781 13.24399876 -16.51958849 14.49464881 -18 17 C-18.50377284 20.18944188 -18.50377284 20.18944188 -18.51171875 23.734375 C-18.54716797 25.02988281 -18.58261719 26.32539062 -18.61914062 27.66015625 C-18.64223867 29.02343226 -18.66502114 30.38671364 -18.6875 31.75 C-18.72068648 33.12893862 -18.75517738 34.5078465 -18.79101562 35.88671875 C-18.87351782 39.25752269 -18.93843433 42.62874868 -19 46 C-23.95 46 -28.9 46 -34 46 C-34 31.15 -34 16.3 -34 1 C-29.05 1 -24.1 1 -19 1 C-18.67 2.32 -18.34 3.64 -18 5 C-17.21625 4.360625 -16.4325 3.72125 -15.625 3.0625 C-10.65852599 -0.83972958 -6.15420538 -0.47875714 0 0 Z " fill="#EFF1F1" transform="translate(90,49)"/>
<path d="M0 0 C4.95 0 9.9 0 15 0 C15 14.85 15 29.7 15 45 C10.05 45 5.1 45 0 45 C0 30.15 0 15.3 0 0 Z " fill="#F1F2F2" transform="translate(32,50)"/>
<path d="M0 0 C2.5625 1.5625 2.5625 1.5625 4 4 C4.5625 7.5 4.5625 7.5 4 11 C1.88564247 13.57687323 0.32896485 14.74473348 -2.97265625 15.37890625 C-6.36510409 15.57547799 -8.61480134 15.24074916 -11.5 13.4375 C-13.58392818 10.05111671 -13.55802097 7.90614682 -13 4 C-10.02640665 -1.04218002 -5.30304509 -0.94384472 0 0 Z " fill="#E8EDEF" transform="translate(44,28)"/>
</svg>
