<?xml version="1.0" encoding="UTF-8"?>
<svg version="1.1" xmlns="http://www.w3.org/2000/svg" width="128" height="128">
<path d="M0 0 C1.06992188 0.474375 2.13984375 0.94875 3.2421875 1.4375 C19.75466286 9.51889971 30.60523995 22.82755446 37 40 C42.06607892 56.45589972 40.17630093 75.364933 32.4375 90.5625 C23.98018897 106.14196506 10.05453856 117.53704136 -7.0234375 122.59985352 C-12.97908749 124.08546026 -18.75552789 124.34853742 -24.875 124.3125 C-26.33135864 124.30621582 -26.33135864 124.30621582 -27.81713867 124.29980469 C-34.60417468 124.19258993 -40.66126044 123.57545985 -47 121 C-47.74636719 120.7215625 -48.49273437 120.443125 -49.26171875 120.15625 C-64.32534162 114.05719153 -77.09365545 103.18355309 -83.81835938 88.17333984 C-90.02350108 72.8160129 -92.29895737 53.7207259 -86.3125 37.90234375 C-85.879375 36.94457031 -85.44625 35.98679688 -85 35 C-84.2884375 33.39318359 -84.2884375 33.39318359 -83.5625 31.75390625 C-75.4732498 15.24483552 -62.17486912 4.39566256 -45 -2 C-31.0853272 -6.30117326 -13.31519737 -6.09524021 0 0 Z " fill="#637889" transform="translate(89,4)"/>
<path d="M0 0 C0.86066574 0.00030212 1.72133148 0.00060425 2.608078 0.00091553 C3.53316666 0.02156067 4.45825531 0.04220581 5.41137695 0.06347656 C6.36156204 0.06913635 7.31174713 0.07479614 8.29072571 0.08062744 C11.32754764 0.10303009 14.36319252 0.15323386 17.3996582 0.20410156 C19.45758388 0.22416153 21.51552804 0.24241317 23.57348633 0.25878906 C28.62016427 0.30290769 33.66596164 0.37196226 38.7121582 0.45410156 C38.72674072 1.04425049 38.74132324 1.63439941 38.75634766 2.24243164 C38.83084664 4.91781386 38.92749816 7.59195048 39.0246582 10.26660156 C39.05849609 11.65975586 39.05849609 11.65975586 39.09301758 13.08105469 C39.1284668 13.97373047 39.16391602 14.86640625 39.20043945 15.78613281 C39.22662354 16.60831299 39.25280762 17.43049316 39.27978516 18.27758789 C39.8164717 20.97920309 40.46847737 21.87281707 42.7121582 23.45410156 C44.92650891 23.95565178 44.92650891 23.95565178 47.38012695 23.96582031 C48.27280273 24.00126953 49.16547852 24.03671875 50.08520508 24.07324219 C51.01397461 24.09580078 51.94274414 24.11835937 52.8996582 24.14160156 C54.31021484 24.1928418 54.31021484 24.1928418 55.74926758 24.24511719 C58.07011213 24.32758375 60.39057969 24.3967356 62.7121582 24.45410156 C62.81348532 32.35600853 62.88359335 40.25774829 62.93188477 48.16015625 C62.94975721 50.84914622 62.97760295 53.53775982 63.01391602 56.2265625 C63.06237435 60.08897717 63.08511446 63.95081364 63.1027832 67.81347656 C63.12342834 69.01776306 63.14407349 70.22204956 63.16534424 71.46282959 C63.16579742 73.14411957 63.16579742 73.14411957 63.16625977 74.859375 C63.17958344 76.33830231 63.17958344 76.33830231 63.19317627 77.84710693 C62.55814297 81.28882465 61.54466564 82.42743738 58.7121582 84.45410156 C55.90429688 84.96203613 55.90429688 84.96203613 52.63012695 84.97167969 C51.40205322 84.98428833 50.17397949 84.99689697 48.90869141 85.0098877 C47.57234116 85.00272783 46.23599615 84.99452383 44.8996582 84.98535156 C43.52489955 84.98804733 42.15014276 84.99193046 40.77539062 84.99694824 C37.89703176 85.00283949 35.01917011 84.99429333 32.14086914 84.97558594 C28.45511804 84.95279545 24.77053198 84.9659207 21.08482361 84.98987579 C18.24685928 85.00434455 15.40917023 84.9997231 12.57119751 84.98936462 C11.2124518 84.98670026 9.85368092 84.98995697 8.4949646 84.99928284 C6.59471122 85.00946397 4.69436996 84.99118886 2.79418945 84.97167969 C1.71371338 84.96849731 0.6332373 84.96531494 -0.47998047 84.96203613 C-3.2878418 84.45410156 -3.2878418 84.45410156 -5.63661194 82.88220215 C-7.83895918 79.64369444 -7.84256751 76.87065168 -7.78955078 73.08691406 C-7.79495377 72.35148376 -7.80035675 71.61605347 -7.80592346 70.8583374 C-7.8184133 68.43151389 -7.80191924 66.00587621 -7.78393555 63.57910156 C-7.78409053 61.89046161 -7.7855794 60.20182129 -7.78834534 58.51318359 C-7.78972944 54.97575131 -7.77716974 51.43872443 -7.75439453 47.90136719 C-7.72600965 43.36833254 -7.72874697 38.83597146 -7.74148464 34.30288696 C-7.74844155 30.81642917 -7.74065244 27.3301269 -7.72822762 23.84368896 C-7.72371321 22.172349 -7.72337622 20.50099235 -7.72729301 18.82965088 C-7.73020541 16.49318247 -7.71369805 14.15764038 -7.69189453 11.82128906 C-7.69639618 11.13129822 -7.70089783 10.44130737 -7.70553589 9.73040771 C-7.65966844 6.77036019 -7.39853939 4.66823656 -6.03057861 2.02203369 C-3.86535489 0.07399207 -2.88377764 -0.0338273 0 0 Z " fill="#E9EEF1" transform="translate(38.287841796875,20.5458984375)"/>
<path d="M0 0 C5.60525362 4.66732274 10.79461593 9.64317437 15.9375 14.8125 C16.71673828 15.58787109 17.49597656 16.36324219 18.29882812 17.16210938 C19.03423828 17.89880859 19.76964844 18.63550781 20.52734375 19.39453125 C21.19499756 20.06331299 21.86265137 20.73209473 22.55053711 21.42114258 C24 23 24 23 24 24 C20.75030231 24.11638036 17.5011417 24.18730581 14.25 24.25 C12.86941406 24.30027344 12.86941406 24.30027344 11.4609375 24.3515625 C7.60378272 24.40746329 4.8270698 24.43322704 1.375 22.625 C-0.81402553 18.44595126 -0.41874663 14.38404215 -0.25 9.75 C-0.23195313 8.81414063 -0.21390625 7.87828125 -0.1953125 6.9140625 C-0.14825673 4.60832985 -0.08253713 2.30469055 0 0 Z " fill="#31A4DA" transform="translate(77,21)"/>
<path d="M0 0 C0.78375 0.04125 1.5675 0.0825 2.375 0.125 C3.035 2.105 3.695 4.085 4.375 6.125 C4.705 4.475 5.035 2.825 5.375 1.125 C6.035 1.125 6.695 1.125 7.375 1.125 C7.705 2.115 8.035 3.105 8.375 4.125 C9.035 2.805 9.695 1.485 10.375 0.125 C16.25 1 16.25 1 17.375 2.125 C17.54296875 4.12109375 17.54296875 4.12109375 17.5625 6.5625 C17.57667969 7.36558594 17.59085938 8.16867188 17.60546875 8.99609375 C17.375 11.125 17.375 11.125 15.375 13.125 C13.41967773 13.36791992 13.41967773 13.36791992 11.05859375 13.35546875 C10.21232422 13.35353516 9.36605469 13.35160156 8.49414062 13.34960938 C7.60919922 13.33736328 6.72425781 13.32511719 5.8125 13.3125 C4.92369141 13.31185547 4.03488281 13.31121094 3.11914062 13.31054688 C-3.48478903 13.26521097 -3.48478903 13.26521097 -4.625 12.125 C-4.7495486 10.48269636 -4.80068524 8.83447724 -4.8125 7.1875 C-4.82667969 6.29160156 -4.84085938 5.39570312 -4.85546875 4.47265625 C-4.51092568 0.96298874 -3.48296643 0.16585554 0 0 Z " fill="#6A7F8F" transform="translate(44.625,42.875)"/>
<path d="M0 0 C16.83 0 33.66 0 51 0 C51 1.32 51 2.64 51 4 C34.17 4 17.34 4 0 4 C0 2.68 0 1.36 0 0 Z " fill="#D7D8DD" transform="translate(40,78)"/>
<path d="M0 0 C16.83 0 33.66 0 51 0 C51 1.32 51 2.64 51 4 C34.17 4 17.34 4 0 4 C0 2.68 0 1.36 0 0 Z " fill="#D5D6DB" transform="translate(40,65)"/>
<path d="M0 0 C3.5625 0.3125 3.5625 0.3125 5.5 1.375 C7.11729605 4.32418691 6.74880138 7.02117559 6.5625 10.3125 C5.9025 10.3125 5.2425 10.3125 4.5625 10.3125 C3.9025 11.6325 3.2425 12.9525 2.5625 14.3125 C-1.4375 14.3125 -1.4375 14.3125 -3.6875 12.8125 C-6.26892173 9.12475467 -5.86811131 6.76215021 -5.4375 2.3125 C-3.4375 0.3125 -3.4375 0.3125 0 0 Z " fill="#F5D16B" transform="translate(50.4375,27.6875)"/>
<path d="M0 0 C10.23 0 20.46 0 31 0 C31 1.32 31 2.64 31 4 C20.77 4 10.54 4 0 4 C0 2.68 0 1.36 0 0 Z " fill="#D5D6DB" transform="translate(40,90)"/>
<path d="M0 0 C0.99 0 1.98 0 3 0 C3.268125 1.03125 3.53625 2.0625 3.8125 3.125 C4.80998897 6.6485042 6.2661898 9.76880827 8 13 C6.52093108 13.02689216 5.04172517 13.04634621 3.5625 13.0625 C2.32693359 13.07990234 2.32693359 13.07990234 1.06640625 13.09765625 C-1 13 -1 13 -2 12 C-2.1245486 10.35769636 -2.17568524 8.70947724 -2.1875 7.0625 C-2.20167969 6.16660156 -2.21585938 5.27070312 -2.23046875 4.34765625 C-2 2 -2 2 0 0 Z " fill="#6B7F90" transform="translate(42,43)"/>
<path d="M0 0 C0.66 0 1.32 0 2 0 C2.66 1.98 3.32 3.96 4 6 C4.33 4.35 4.66 2.7 5 1 C5.66 1 6.32 1 7 1 C7.33 1.99 7.66 2.98 8 4 C8.66 2.68 9.32 1.36 10 0 C10.66 0 11.32 0 12 0 C11.54996653 5.62541841 10.31558515 8.61487125 7 13 C2.89952317 11.63317439 2.0465061 9.74016633 0 6 C-0.25 2.625 -0.25 2.625 0 0 Z " fill="#466277" transform="translate(45,43)"/>
<path d="M0 0 C3.5 0.25 3.5 0.25 5.5 2.25 C5.625 5.375 5.625 5.375 5.5 8.25 C5.2215625 7.2909375 5.2215625 7.2909375 4.9375 6.3125 C3.55753944 3.82873787 3.55753944 3.82873787 -0.125 3.5 C-1.23875 3.4175 -2.3525 3.335 -3.5 3.25 C-3.5 5.23 -3.5 7.21 -3.5 9.25 C-4.16 8.92 -4.82 8.59 -5.5 8.25 C-5.625 5.375 -5.625 5.375 -5.5 2.25 C-3.5 0.25 -3.5 0.25 0 0 Z " fill="#6A7D8A" transform="translate(50.5,27.75)"/>
<path d="M0 0 C2.66698331 0.73853737 2.66698331 0.73853737 5.5625 -0.5 C6.2225 0.16 6.8825 0.82 7.5625 1.5 C6.9025 1.5 6.2425 1.5 5.5625 1.5 C4.9025 3.81 4.2425 6.12 3.5625 8.5 C3.2325 8.5 2.9025 8.5 2.5625 8.5 C2.5625 6.52 2.5625 4.54 2.5625 2.5 C0.27521266 4.33883881 0.27521266 4.33883881 0.4375 7.125 C0.47875 7.90875 0.52 8.6925 0.5625 9.5 C-1.4375 7.5 -1.4375 7.5 -1.9375 4.4375 C-2.1025 3.468125 -2.2675 2.49875 -2.4375 1.5 C-3.0975 1.17 -3.7575 0.84 -4.4375 0.5 C-2.4375 -0.5 -2.4375 -0.5 0 0 Z " fill="#C5D0D5" transform="translate(49.4375,41.5)"/>
<path d="M0 0 C0.66 0 1.32 0 2 0 C4.42857143 6.28571429 4.42857143 6.28571429 3 10 C0.64551835 7.44931155 0.01672076 6.28982642 -0.1875 2.75 C-0.125625 1.8425 -0.06375 0.935 0 0 Z " fill="#445D71" transform="translate(45,43)"/>
<path d="M0 0 C1.32 0.66 2.64 1.32 4 2 C3.34 2 2.68 2 2 2 C1.34 4.31 0.68 6.62 0 9 C-0.33 9 -0.66 9 -1 9 C-1.625 5.625 -1.625 5.625 -2 2 C-1.34 1.34 -0.68 0.68 0 0 Z " fill="#D1D5D9" transform="translate(53,41)"/>
<path d="M0 0 C0.66 0 1.32 0 2 0 C2 2.97 2 5.94 2 9 C1.01 9.495 1.01 9.495 0 10 C-0.19412181 8.52168779 -0.38012131 7.04230684 -0.5625 5.5625 C-0.66691406 4.73878906 -0.77132812 3.91507813 -0.87890625 3.06640625 C-0.91886719 2.38449219 -0.95882812 1.70257813 -1 1 C-0.67 0.67 -0.34 0.34 0 0 Z " fill="#3198C8" transform="translate(50,44)"/>
<path d="M0 0 C0.66 0.33 1.32 0.66 2 1 C2 1.66 2 2.32 2 3 C1.34 3 0.68 3 0 3 C0 4.98 0 6.96 0 9 C-0.66 8.67 -1.32 8.34 -2 8 C-2.125 5.125 -2.125 5.125 -2 2 C-1.34 1.34 -0.68 0.68 0 0 Z " fill="#8A938B" transform="translate(47,28)"/>
</svg>
